<?xml version="1.0" standalone="no"?>
<!DOCTYPE svg PUBLIC "-//W3C//DTD SVG 20010904//EN"
 "http://www.w3.org/TR/2001/REC-SVG-20010904/DTD/svg10.dtd">
<svg version="1.0" xmlns="http://www.w3.org/2000/svg"
 width="801.000000pt" height="916.000000pt" viewBox="0 0 801.000000 916.000000"
 preserveAspectRatio="xMidYMid meet">
<metadata>
Created by potrace 1.16, written by Peter Selinger 2001-2019
</metadata>
<g transform="translate(0.000000,916.000000) scale(0.100000,-0.100000)"
fill="#000000" stroke="none">
<path d="M34 9151 c9 -14 -12 -63 -24 -56 -5 3 -10 -1 -10 -9 0 -9 8 -16 19
-16 31 0 35 -19 7 -30 -20 -7 -26 -17 -26 -39 0 -16 5 -33 10 -36 6 -3 10 -14
10 -23 0 -15 -2 -15 -10 -2 -8 12 -10 12 -10 -5 0 -11 10 -25 22 -30 13 -6 24
-18 26 -28 4 -22 -17 -77 -29 -77 -14 0 -11 17 7 34 14 15 14 16 -5 16 -18 0
-21 -6 -21 -39 0 -25 5 -41 15 -45 9 -3 15 0 15 9 0 8 7 15 16 15 13 0 15 -7
11 -28 -5 -26 -3 -29 23 -29 28 0 29 2 28 49 0 27 3 52 6 55 3 4 6 -5 6 -20 0
-14 5 -29 11 -32 5 -4 9 -17 7 -28 -1 -12 0 -27 4 -32 3 -6 4 -22 1 -38 -6
-32 -38 -37 -46 -8 -6 25 -73 40 -90 21 -9 -10 -8 -12 5 -7 24 9 30 -18 7 -39
-26 -24 -26 -80 1 -89 11 -3 20 -12 20 -20 0 -7 11 -16 25 -19 31 -8 53 -44
31 -52 -21 -8 -36 4 -36 29 0 18 -2 19 -10 7 -5 -8 -10 -26 -10 -41 0 -14 -5
-30 -11 -36 -7 -7 -7 -13 0 -17 5 -4 8 -13 4 -21 -3 -9 0 -22 7 -30 10 -12 10
-18 0 -30 -7 -8 -19 -15 -26 -15 -16 0 -19 -16 -4 -25 6 -3 10 -1 10 6 0 7 8
9 21 6 12 -3 22 0 26 9 9 24 24 16 17 -10 -5 -22 -2 -25 35 -31 35 -6 41 -10
41 -32 0 -19 -8 -28 -37 -40 -28 -10 -43 -25 -57 -54 -10 -22 -23 -38 -30 -36
-7 3 -12 -10 -14 -32 -1 -20 -6 -37 -11 -39 -5 -2 -10 -139 -11 -314 -1 -287
1 -311 17 -324 17 -13 17 -15 -2 -29 -17 -14 -18 -17 -5 -26 11 -8 12 -12 2
-16 -16 -6 -17 -193 -1 -193 6 0 8 9 4 22 -6 17 -4 20 10 15 9 -4 21 -7 26 -7
5 0 3 -13 -6 -30 -9 -16 -22 -30 -30 -30 -13 0 -15 -25 -15 -155 l0 -155 25 0
24 0 -25 -37 c-17 -25 -21 -39 -13 -44 8 -5 8 -8 0 -13 -6 -4 -11 -30 -11 -59
0 -45 2 -49 13 -32 19 24 28 7 20 -39 -4 -26 -10 -35 -19 -32 -11 4 -14 -5
-14 -36 0 -40 1 -41 19 -24 21 19 86 19 86 0 0 -6 8 -18 18 -28 24 -24 22 -32
-12 -46 -16 -6 -32 -18 -35 -26 -6 -17 -32 -19 -42 -3 -3 6 -2 15 4 21 7 7 4
16 -9 29 -10 10 -21 19 -22 19 -2 0 -5 -52 -6 -116 -2 -77 2 -120 10 -130 8
-10 8 -14 0 -14 -7 0 -10 -36 -8 -112 2 -103 4 -113 21 -111 13 1 15 -2 7 -10
-6 -6 -11 -21 -11 -34 0 -13 -4 -23 -10 -23 -15 0 -12 -46 4 -59 18 -15 27
-51 12 -48 -6 1 -14 7 -18 12 -4 6 -8 -3 -8 -19 0 -23 3 -27 20 -23 11 3 20 1
20 -4 0 -8 -14 -13 -32 -10 -4 0 -7 -125 -8 -279 0 -246 2 -279 15 -274 10 4
15 0 15 -15 0 -27 24 -27 73 -1 20 11 37 16 37 11 0 -5 -6 -12 -13 -15 -8 -3
-7 -9 7 -20 33 -27 9 -38 -65 -31 l-69 7 0 -36 c0 -34 1 -35 24 -24 14 6 33 7
43 3 10 -4 29 -7 43 -6 14 1 44 -2 67 -7 26 -6 45 -6 51 0 17 17 22 -7 11 -46
-7 -27 -15 -36 -25 -32 -8 3 -56 9 -107 12 -51 4 -95 12 -99 18 -4 6 -8 -831
-8 -1860 l0 -1871 47 9 c27 5 73 13 103 18 121 21 160 32 400 115 41 14 127
32 190 41 123 16 195 38 302 91 36 18 69 33 72 33 4 0 35 17 69 39 55 34 147
78 200 95 18 6 18 21 1 105 l-5 24 106 -7 c80 -4 107 -3 110 6 2 7 6 132 8
278 2 146 8 275 12 287 11 33 54 47 104 32 l41 -12 0 -300 0 -300 43 7 c50 8
105 42 138 86 44 58 78 87 111 94 63 12 74 28 82 107 14 151 54 256 156 409
31 47 59 92 62 100 3 9 -1 44 -8 80 -8 36 -15 73 -16 83 -1 9 -6 17 -11 17 -4
0 -5 5 -2 10 3 6 0 13 -8 16 -7 2 -31 40 -52 82 -35 71 -56 112 -76 152 -5 8
-15 32 -24 53 -8 20 -21 52 -29 70 -8 17 -17 46 -21 64 -3 18 -15 50 -25 71
-10 21 -22 52 -25 68 -4 16 -13 48 -21 71 -18 55 -64 308 -63 347 l0 31 16
-23 c30 -43 59 -13 46 49 -7 39 -26 53 -51 40 -17 -9 -21 -7 -26 12 -3 12 -6
33 -6 47 0 23 -29 130 -52 193 -6 15 -16 27 -24 27 -7 0 -16 10 -20 23 -7 20
-8 19 -15 -12 -4 -21 -2 -45 7 -67 8 -18 14 -47 14 -63 0 -29 -1 -30 -26 -19
l-25 12 7 90 c5 50 8 102 7 115 -1 16 2 20 10 12 7 -7 16 -7 29 0 22 12 23 32
2 50 -20 17 -95 24 -104 9 -6 -10 -27 30 -44 84 -5 14 -9 16 -20 7 -20 -17
-28 12 -20 67 6 41 5 43 -12 35 -33 -16 -97 -1 -110 25 -8 16 -13 19 -17 10
-3 -10 -7 -10 -17 -1 -10 9 -10 15 3 27 8 9 17 12 19 7 2 -5 17 -11 33 -13 25
-2 31 1 33 19 2 13 10 23 20 23 12 0 13 3 4 12 -7 7 -12 20 -12 31 0 13 5 17
19 12 11 -3 26 1 35 10 15 15 16 15 16 -4 0 -11 -10 -29 -22 -41 -12 -11 -17
-20 -10 -20 6 0 12 -17 14 -37 l4 -38 8 30 c5 17 15 37 22 45 7 9 16 46 18 83
5 56 3 68 -12 77 -16 9 -15 12 6 29 34 29 24 49 -21 42 -4 -1 -15 15 -24 34
-18 38 -37 44 -64 19 -16 -14 -19 -13 -38 7 -24 26 -18 43 12 33 29 -10 69 -6
81 6 15 15 23 12 29 -8 2 -11 14 -22 26 -25 21 -5 22 -3 16 56 -8 77 -12 90
-26 82 -6 -4 -8 -13 -5 -21 3 -8 0 -14 -6 -14 -6 0 -16 -7 -23 -17 -20 -27
-38 -6 -32 38 3 22 1 39 -4 39 -5 0 -9 8 -9 18 0 16 -9 20 -55 24 -5 1 -25 -2
-42 -6 -29 -7 -33 -5 -33 13 0 12 3 21 8 21 4 0 13 9 20 21 11 18 11 20 -5 19
-37 -4 -43 1 -49 39 -4 22 -15 49 -25 60 -11 11 -19 31 -19 44 0 27 -26 40
-71 37 -17 -1 -27 4 -26 12 0 7 -1 23 -1 36 l-2 23 -22 -21 c-12 -11 -28 -20
-35 -20 -7 0 -13 -9 -13 -19 0 -11 -4 -22 -9 -25 -5 -4 -8 -18 -6 -34 5 -36
-4 -82 -17 -82 -6 0 -8 11 -4 26 5 19 3 25 -6 21 -7 -2 -12 -11 -10 -21 2 -9
-4 -16 -13 -16 -23 0 -18 -20 5 -21 11 -1 26 -2 33 -3 6 0 14 -12 16 -26 1
-14 8 -29 15 -33 6 -5 -5 -6 -26 -3 -30 4 -38 1 -38 -11 0 -9 3 -13 6 -10 4 3
18 -3 32 -13 13 -11 35 -20 47 -20 23 0 50 22 39 33 -12 12 106 32 135 22 11
-3 22 -19 26 -37 4 -17 16 -41 27 -52 l20 -21 -7 23 c-6 22 -4 23 27 20 44 -4
51 -33 8 -41 -20 -5 -30 -12 -30 -25 0 -10 -10 -29 -22 -41 -20 -22 -22 -23
-34 -6 -7 9 -18 14 -24 10 -6 -4 -17 -1 -25 5 -8 6 -29 14 -47 16 -50 7 -58
12 -58 33 0 12 11 23 32 30 46 16 32 19 -42 10 -52 -6 -67 -5 -73 7 -12 22
-48 17 -109 -15 -49 -25 -55 -30 -42 -43 12 -12 10 -13 -21 -10 -19 2 -32 8
-29 13 3 5 -4 9 -16 9 -30 0 -60 18 -60 37 0 12 3 13 13 4 20 -16 115 -17 130
-1 10 10 6 12 -19 7 -36 -7 -52 7 -75 61 -15 34 -29 42 -29 17 0 -21 -28 -8
-36 17 -4 13 -1 24 7 29 11 7 11 9 -3 9 -9 0 -18 6 -21 13 -2 6 -8 9 -12 5 -4
-4 -3 -13 3 -20 12 -15 4 -71 -9 -63 -4 3 -6 12 -2 20 3 10 -2 15 -16 15 -17
0 -21 -6 -21 -30 0 -16 5 -30 11 -30 6 0 3 -7 -6 -16 -9 -10 -26 -14 -41 -11
-17 3 -28 -1 -35 -14 -6 -13 -6 -19 1 -19 5 0 10 -9 10 -20 0 -26 8 -25 29 2
12 14 24 19 36 14 17 -6 17 -7 0 -20 -16 -11 -17 -18 -5 -64 20 -84 -2 -100
-60 -46 -14 13 -37 35 -52 49 -20 19 -28 36 -28 61 0 32 2 34 25 28 14 -3 25
-2 25 3 0 15 -23 33 -42 33 -30 0 -24 46 7 54 14 4 25 10 25 15 0 9 -44 41
-57 41 -19 0 -31 -38 -23 -77 6 -36 5 -42 -13 -47 -17 -4 -18 -1 -13 24 4 21
1 32 -10 38 -14 8 -14 12 -3 30 11 18 10 24 -5 41 -20 22 -41 18 -32 -5 4 -10
-2 -14 -19 -14 -18 0 -25 5 -25 20 0 11 -7 20 -15 20 -9 0 -18 7 -21 15 -4 8
-11 15 -16 15 -6 0 -8 -7 -4 -15 6 -18 -30 -59 -44 -50 -14 9 -12 42 2 48 9 4
9 6 1 6 -6 1 -9 9 -6 19 4 15 -5 20 -44 29 -41 9 -45 12 -25 18 17 6 21 12 16
28 -5 16 -3 19 10 14 11 -5 16 -1 16 13 0 27 17 34 23 9 3 -12 10 -18 16 -14
16 9 13 22 -8 42 -21 20 -39 73 -24 73 5 0 14 -5 21 -12 9 -9 13 -7 18 7 8 19
-7 50 -24 50 -6 0 -14 3 -18 8 -4 4 2 7 14 7 30 0 29 34 0 48 l-23 11 25 2
c14 1 32 3 40 4 8 1 25 6 37 13 12 7 24 12 27 12 3 0 7 -33 8 -72 1 -49 3 -59
5 -30 3 26 10 45 19 49 8 3 41 -4 72 -15 34 -13 67 -19 81 -15 16 4 22 2 18
-4 -5 -7 12 -14 45 -18 36 -5 53 -4 56 4 2 6 13 11 24 11 18 0 18 -1 4 -16 -9
-8 -16 -25 -16 -36 0 -17 5 -20 29 -15 39 8 71 -2 64 -19 -7 -19 -23 -18 -23
1 0 8 -4 15 -10 15 -5 0 -10 -12 -10 -27 -1 -30 -23 -67 -33 -56 -9 8 -29 -46
-21 -58 15 -26 64 0 64 34 0 15 5 18 25 13 23 -6 25 -3 25 25 0 22 5 32 20 36
31 8 24 30 -15 49 -23 10 -43 31 -56 55 -17 35 -22 38 -49 33 -37 -8 -54 21
-25 42 15 11 16 17 7 26 -13 13 -16 48 -4 48 14 0 32 -23 32 -42 0 -15 8 -18
46 -18 39 0 50 -5 80 -36 19 -20 34 -42 34 -48 0 -6 7 -3 15 8 10 13 22 17 40
14 14 -3 28 -2 30 3 6 9 -52 39 -77 39 -10 0 -29 11 -42 25 -12 13 -42 33 -67
43 -24 11 -54 31 -66 46 l-23 26 20 35 c21 38 26 70 11 79 -5 4 -7 -2 -4 -13
3 -10 -6 -30 -21 -47 -22 -25 -27 -27 -45 -16 -29 17 -29 17 -42 -29 -15 -48
-3 -62 46 -54 17 3 25 2 18 -1 -7 -3 -10 -11 -7 -17 4 -11 -12 -16 -73 -20
-18 -2 -23 -8 -23 -29 0 -30 -18 -47 -30 -28 -4 7 -22 14 -39 16 -54 6 -91 31
-92 62 -1 15 -5 38 -10 52 -6 18 -7 6 -5 -39 l4 -63 -40 5 c-23 3 -45 11 -49
19 -5 7 -6 37 -2 66 5 46 3 55 -16 73 -28 26 -22 33 31 31 40 -1 42 0 24 13
-11 8 -27 15 -37 15 -9 0 -19 7 -22 15 -6 13 -69 48 -92 49 -5 1 -19 9 -29 19
-11 9 -25 17 -32 17 -7 0 -19 8 -26 18 -7 9 -23 18 -36 20 -13 1 -31 10 -40
19 -22 22 -41 79 -35 103 9 32 20 23 18 -15 -1 -53 22 -44 27 10 3 38 0 45
-14 45 -11 0 -18 8 -18 20 0 15 7 20 28 20 15 0 22 4 16 8 -15 9 -44 95 -44
127 0 30 16 33 23 5 3 -11 12 -20 20 -20 9 0 19 -9 22 -20 3 -11 15 -25 26
-30 11 -6 19 -21 19 -35 0 -15 6 -25 15 -25 17 0 10 26 -16 55 -23 26 -41 75
-35 92 3 7 -3 29 -14 48 -32 56 -27 68 22 61 24 -3 37 -3 31 0 -18 8 -16 31 3
38 24 9 74 7 74 -3 0 -6 14 -11 31 -13 19 -2 36 -11 43 -23 6 -11 19 -26 29
-33 13 -10 15 -17 7 -33 -9 -16 -7 -21 15 -29 34 -13 35 -13 35 4 0 8 -7 16
-15 20 -18 6 -21 66 -4 83 8 8 8 13 0 17 -6 4 -11 18 -11 32 0 13 -4 24 -10
24 -5 0 -10 5 -10 11 0 7 14 8 40 4 28 -5 40 -3 40 5 0 9 11 11 36 7 25 -4 37
-2 41 9 3 7 11 14 18 14 7 0 15 7 19 15 3 9 18 15 36 15 19 0 30 5 30 14 0 7
9 16 20 19 20 5 37 33 26 44 -3 3 -12 1 -19 -6 -11 -9 -17 -8 -26 3 -10 12
-16 12 -41 -1 -17 -8 -30 -19 -30 -24 0 -5 -5 -9 -12 -9 -8 0 -9 3 -2 10 6 6
8 31 4 59 -7 52 -4 64 22 100 14 20 19 21 40 10 12 -7 32 -12 43 -11 55 7 60
10 58 31 -2 15 3 21 17 21 11 0 20 5 20 11 0 6 7 8 17 5 10 -4 24 2 36 15 18
20 21 20 32 5 24 -33 65 -12 65 33 0 15 5 42 10 63 8 29 14 35 30 31 11 -3 20
-9 20 -14 0 -4 19 -11 41 -16 35 -7 43 -14 53 -40 13 -39 63 -103 80 -103 22
0 53 -44 61 -84 6 -35 5 -38 -9 -27 -9 7 -22 11 -30 8 -8 -3 -20 0 -26 8 -22
27 -48 24 -59 -6 -7 -19 -17 -29 -30 -29 -24 0 -25 -4 -11 -31 15 -27 -5 -25
-24 3 -15 21 -16 21 -29 4 -12 -16 -22 -18 -63 -13 -45 5 -51 4 -71 -23 -28
-34 -38 -60 -25 -60 5 0 18 11 28 25 19 25 54 34 54 14 0 -5 -4 -7 -10 -4 -18
11 -10 -32 11 -56 19 -22 19 -24 3 -36 -25 -18 -34 -16 -34 6 0 26 -15 34 -30
16 -10 -12 -6 -20 20 -44 20 -18 39 -27 51 -24 11 3 25 0 32 -6 8 -6 17 -8 20
-4 4 3 7 -1 7 -11 0 -9 -7 -19 -15 -22 -16 -7 -21 -44 -6 -44 6 0 11 -19 13
-42 2 -34 7 -44 23 -46 11 -2 26 -11 33 -20 7 -9 12 -11 12 -4 0 22 29 12 45
-15 l15 -28 -6 28 c-7 31 3 35 22 10 21 -29 17 -61 -12 -80 -24 -16 -27 -16
-36 0 -11 21 -28 22 -54 2 -19 -16 -19 -16 1 -13 13 2 29 -8 47 -30 34 -42 42
-43 48 -7 6 33 29 40 76 20 24 -10 35 -10 44 -2 10 9 11 -1 8 -46 -6 -74 -17
-86 -56 -58 -17 11 -33 21 -36 21 -13 0 -5 -23 11 -35 16 -12 16 -16 3 -39
-13 -25 -11 -32 15 -84 16 -31 28 -68 26 -81 -2 -15 1 -21 8 -17 12 8 31 -33
30 -62 0 -14 -3 -13 -16 6 -21 30 -35 28 -31 -5 2 -20 8 -27 21 -25 11 2 17
-4 17 -16 0 -10 6 -24 13 -31 10 -11 9 -13 -6 -7 -10 3 -21 6 -23 6 -2 0 -4 6
-4 14 0 46 -115 4 -122 -45 -2 -14 -1 -35 3 -45 7 -17 8 -17 8 -1 1 10 9 17
21 17 28 0 70 -21 70 -35 0 -8 19 -13 55 -14 31 0 55 3 55 9 0 6 -11 10 -24
10 -14 0 -28 5 -31 11 -10 16 3 23 18 11 7 -6 22 -9 34 -6 11 3 27 -1 37 -11
9 -9 16 -11 16 -5 0 6 -7 13 -15 16 -8 4 -15 15 -15 25 0 12 -7 19 -20 19 -11
0 -20 6 -20 13 0 20 12 28 25 17 17 -14 28 45 14 72 -6 11 -8 27 -4 36 6 15 8
15 21 -2 8 -11 14 -14 14 -8 0 20 17 14 23 -8 6 -25 27 -27 27 -2 0 35 -23 97
-42 115 -15 15 -22 16 -34 6 -13 -10 -17 -10 -24 1 -13 21 -23 5 -11 -18 6
-11 7 -22 4 -26 -3 -3 -1 -6 6 -6 15 0 6 -51 -10 -61 -6 -3 -4 -17 5 -34 12
-23 12 -30 1 -41 -30 -31 -42 -8 -36 70 2 18 -4 33 -17 42 -11 8 -19 26 -20
44 0 18 -8 41 -18 51 -16 17 -16 19 -1 19 10 0 17 5 17 12 0 21 14 -2 18 -30
4 -34 22 -54 22 -25 0 12 4 25 10 28 5 3 7 19 4 34 -6 26 -3 29 30 35 20 4 41
4 46 1 12 -8 13 15 1 34 -6 9 -18 11 -40 6 -26 -6 -32 -3 -40 16 -4 13 -4 39
0 59 18 77 6 127 -20 83 -8 -15 -10 -11 -11 20 0 33 -3 37 -25 37 -33 0 -75
20 -75 36 0 8 -13 23 -30 36 -18 13 -30 31 -30 45 0 13 -4 23 -10 23 -5 0 -10
-10 -10 -23 0 -28 -17 -47 -42 -47 -21 0 -24 6 -33 73 -5 38 -3 47 9 47 8 0
16 -6 19 -12 3 -10 7 -10 17 -1 13 12 40 7 53 -11 10 -15 48 34 43 57 -6 27
23 21 36 -8 6 -14 15 -25 21 -25 5 0 6 11 3 25 -5 18 -2 25 9 25 17 0 18 -4 6
-46 -7 -25 -5 -34 15 -53 13 -13 39 -24 60 -26 31 -3 35 -1 31 16 -3 10 -2 19
2 19 16 0 31 -26 31 -53 0 -15 4 -36 9 -46 6 -10 13 -42 17 -71 6 -44 5 -52
-7 -48 -10 4 -15 -1 -16 -13 -1 -11 3 -17 8 -13 22 13 37 -18 38 -79 2 -137 3
-145 21 -140 15 4 17 14 14 60 -2 30 -6 58 -9 63 -6 10 -35 225 -35 261 0 19
5 26 16 25 26 -2 28 22 2 26 -26 3 -39 38 -14 38 9 0 16 4 16 10 0 5 -6 7 -14
4 -12 -5 -14 10 -14 75 0 63 3 81 14 81 8 0 14 -10 14 -25 0 -20 5 -25 24 -25
13 0 26 -7 30 -15 4 -12 0 -14 -19 -9 -29 7 -29 6 -14 -69 11 -55 21 -68 34
-47 4 7 13 6 26 -1 27 -14 22 -55 -6 -51 -16 3 -12 -4 18 -35 41 -43 46 -67
17 -85 -18 -11 -18 -14 -3 -30 15 -17 14 -18 -10 -18 -21 0 -25 4 -20 18 6 16
6 16 -11 -1 -26 -25 -14 -46 26 -43 43 2 58 -10 58 -45 0 -22 -5 -29 -19 -29
-35 0 -32 -18 4 -24 32 -6 35 -10 35 -41 0 -19 4 -36 9 -40 6 -3 8 22 4 66 -6
68 -5 72 14 67 11 -3 28 1 38 8 18 13 18 14 -3 14 -13 0 -25 7 -28 15 -4 8
-10 12 -15 9 -14 -8 -39 22 -46 56 -5 28 -3 31 13 28 14 -3 18 -11 17 -30 -2
-38 23 -26 31 14 6 31 -9 62 -25 52 -9 -5 -13 9 -10 32 1 7 -8 14 -19 17 -30
8 -35 35 -15 73 10 19 21 34 25 34 4 0 24 -18 44 -40 27 -30 36 -49 36 -75 0
-26 -4 -35 -17 -35 -13 0 -11 -5 8 -22 l24 -23 6 25 c6 24 7 24 8 2 0 -12 5
-21 9 -20 5 2 27 -16 49 -39 28 -29 42 -54 46 -81 8 -48 0 -58 -25 -29 -19 22
-19 22 -13 1 4 -15 0 -24 -12 -28 -15 -6 -14 -9 7 -19 20 -10 26 -23 30 -59 4
-30 2 -46 -5 -45 -6 1 -9 -16 -7 -44 3 -35 0 -48 -13 -52 -10 -4 -14 -15 -11
-29 3 -13 7 -54 11 -91 l6 -69 -33 7 c-27 6 -31 5 -21 -6 10 -10 7 -15 -14
-26 -14 -7 -26 -12 -27 -11 -1 2 -9 13 -19 25 -18 21 -18 21 20 33 67 22 73
38 32 90 -18 23 -20 24 -30 8 -5 -10 -19 -18 -29 -18 -11 0 -20 -5 -20 -11 0
-5 -4 -7 -10 -4 -5 3 -10 -1 -10 -9 0 -9 7 -16 15 -16 8 0 15 7 15 15 0 21 37
19 42 -2 7 -27 -1 -43 -22 -43 -26 0 -34 -27 -43 -137 -1 -18 -5 -33 -8 -33
-3 0 -11 -11 -17 -25 -9 -20 -9 -25 3 -25 7 0 16 4 19 9 9 14 39 2 58 -24 17
-23 26 -50 27 -87 1 -10 8 -18 16 -18 20 0 20 -36 0 -44 -11 -4 -15 1 -15 19
0 16 -6 25 -15 25 -8 0 -15 -3 -15 -7 0 -16 -56 -71 -77 -77 -16 -5 -26 -2
-35 13 -8 13 -23 21 -39 21 -15 0 -34 10 -47 25 -13 14 -33 25 -47 25 -21 0
-25 5 -25 31 0 38 -20 109 -31 109 -4 0 -11 -4 -14 -10 -3 -5 -24 -10 -46 -10
l-39 0 0 45 c0 32 -4 45 -14 45 -8 0 -16 6 -19 13 -3 8 -14 2 -31 -17 -28 -29
-55 -36 -93 -22 -18 5 -23 4 -23 -8 0 -9 5 -16 11 -16 6 0 17 -7 25 -15 10 -9
25 -13 39 -9 26 6 41 -9 22 -23 -20 -17 -85 -4 -92 18 -7 20 -30 26 -40 9 -3
-5 -18 -10 -32 -10 -22 0 -24 -3 -19 -27 6 -27 6 -27 -9 -9 -19 25 -35 10 -28
-27 4 -18 13 -29 30 -33 30 -8 45 -43 27 -62 -31 -30 -15 -34 68 -17 10 2 18
-1 18 -6 0 -4 9 -13 19 -19 18 -9 19 -7 16 33 -3 46 -33 106 -44 88 -4 -6 -17
-8 -29 -4 -16 4 -22 13 -22 32 l0 27 65 -16 c35 -9 73 -24 83 -33 21 -19 52
-23 52 -6 0 21 33 4 35 -18 2 -30 15 -42 15 -15 0 12 5 22 10 22 18 0 10 18
-10 23 -12 3 -20 14 -20 27 0 19 5 21 43 18 39 -3 42 -5 39 -30 -1 -16 2 -28
8 -28 5 0 10 -9 10 -19 0 -11 5 -23 10 -26 6 -3 10 -19 10 -36 0 -16 -4 -29
-10 -29 -5 0 -10 -9 -10 -20 0 -15 7 -20 25 -20 14 0 25 6 25 13 0 18 27 53
34 46 4 -3 3 -17 -2 -30 -12 -33 -5 -48 21 -42 13 3 18 1 11 -4 -22 -17 -22
-43 2 -92 28 -55 53 -67 55 -26 1 14 2 35 2 47 1 16 -7 27 -26 36 -15 7 -25
18 -21 23 4 6 11 6 20 -2 11 -9 14 -8 14 5 0 9 -4 16 -10 16 -5 0 -10 7 -10
15 0 8 5 15 10 15 6 0 10 -4 10 -10 0 -5 7 -10 16 -10 8 0 22 -6 29 -12 45
-41 65 -49 65 -27 0 6 8 8 19 4 12 -3 21 0 25 10 3 9 0 15 -9 15 -18 0 -20 34
-2 47 19 15 60 0 75 -27 12 -23 13 -20 8 30 -8 68 8 103 19 41 4 -22 10 -43
15 -46 4 -2 4 -24 -1 -47 -11 -60 -11 -126 1 -133 6 -3 12 0 15 7 4 14 19 162
35 363 11 128 37 272 53 293 5 7 11 35 12 63 2 27 9 56 15 64 7 8 9 15 5 15
-4 0 -2 7 5 15 6 8 9 19 5 26 -4 6 -1 15 6 20 20 13 27 11 32 -8 4 -17 5 -17
6 0 0 9 7 17 14 17 21 0 67 57 67 84 0 13 10 45 22 72 22 51 25 123 6 135 -7
4 -2 12 11 20 11 8 21 24 21 37 0 13 -4 21 -9 18 -12 -8 -9 11 9 52 9 19 20
30 28 27 9 -3 10 0 4 13 -12 23 -4 42 14 35 9 -3 14 2 14 16 0 15 -6 21 -21
21 -19 0 -19 1 -5 16 9 8 16 20 16 25 0 5 7 9 15 9 21 0 31 30 15 40 -7 5 -15
25 -17 45 -2 23 0 34 6 30 13 -7 51 12 51 25 0 6 -11 10 -25 10 -35 0 -31 17
6 25 32 7 44 26 54 88 4 28 10 37 20 33 11 -4 13 2 9 24 -5 24 -2 31 23 43 16
9 55 45 87 81 36 41 62 63 71 60 16 -6 45 18 45 36 0 7 7 10 15 6 9 -3 21 4
31 19 9 14 24 25 34 25 10 0 20 7 24 15 3 9 18 15 37 15 22 0 30 -4 26 -13 -8
-22 9 -41 29 -33 16 6 16 8 4 16 -13 8 -12 10 2 10 9 0 21 7 26 16 8 15 11 15
31 -5 24 -24 47 -27 55 -8 3 6 4 3 3 -8 -1 -14 4 -20 18 -20 15 0 19 6 17 22
-3 21 0 22 30 16 18 -3 35 -9 38 -13 3 -4 28 -6 55 -5 28 1 55 -2 61 -7 13
-10 44 -1 44 13 0 5 12 9 28 9 15 0 45 2 66 5 21 2 43 2 49 -2 13 -8 81 -15
154 -16 34 -1 59 -5 57 -9 -3 -4 -1 -8 5 -8 5 0 13 5 17 11 4 7 21 9 42 6 19
-4 43 -2 53 4 13 7 19 6 19 -1 0 -8 17 -10 52 -6 36 4 55 2 60 -7 6 -9 10 -9
17 2 6 10 19 12 44 7 21 -4 38 -2 42 4 8 14 21 13 37 -3 7 -7 33 -14 58 -14
25 -1 66 -5 93 -8 39 -6 47 -4 47 9 0 20 11 20 55 2 21 -9 49 -12 70 -9 33 5
82 -4 142 -28 16 -6 22 -5 20 3 -1 7 7 14 18 16 17 4 18 2 6 -12 -12 -14 -11
-16 5 -16 11 0 31 6 45 14 24 12 29 12 44 -3 13 -12 19 -13 22 -3 6 15 38 16
66 0 12 -7 52 -13 88 -14 47 0 72 -5 83 -16 9 -9 24 -14 35 -11 10 3 22 0 25
-6 4 -6 28 -11 54 -11 52 0 92 -21 92 -48 0 -12 3 -13 8 -5 10 15 32 12 65
-10 15 -9 34 -17 42 -17 9 0 31 -11 49 -25 18 -14 40 -25 49 -25 8 0 29 -8 46
-17 28 -16 33 -16 41 -3 7 12 12 12 22 2 6 -6 19 -12 28 -12 13 0 30 -12 87
-60 7 -5 17 -10 23 -10 5 0 10 -6 10 -14 0 -8 8 -17 19 -21 24 -7 61 -39 61
-53 0 -6 14 -19 30 -29 17 -9 30 -25 30 -35 0 -10 5 -18 10 -18 6 0 10 -12 10
-26 0 -16 15 -45 35 -70 19 -23 35 -47 35 -53 0 -6 5 -11 11 -11 7 0 8 -13 4
-38 -5 -29 -2 -42 9 -52 9 -7 16 -18 16 -26 0 -7 8 -18 18 -24 14 -9 13 -10
-7 -4 l-24 6 22 -31 c12 -17 19 -36 15 -42 -4 -8 -3 -9 5 -5 7 5 23 5 35 2 18
-4 25 -14 28 -40 4 -33 3 -34 -24 -29 -33 7 -38 -15 -10 -40 26 -24 45 -22 37
3 -5 16 -2 20 14 20 12 0 21 -4 21 -10 0 -5 -6 -10 -12 -10 -10 0 -10 -2 0 -9
7 -4 12 -12 11 -17 -4 -23 2 -45 11 -39 6 4 10 -5 10 -20 0 -14 7 -28 15 -31
8 -4 15 -13 15 -21 0 -9 -5 -11 -12 -7 -21 13 -48 11 -48 -3 0 -7 4 -13 9 -13
16 0 23 -52 9 -61 -9 -6 -4 -9 15 -9 32 0 44 -21 27 -47 -10 -16 -11 -15 -6 5
2 13 2 21 -1 18 -4 -3 -12 -1 -20 5 -10 9 -13 7 -13 -7 0 -18 45 -91 68 -109
7 -5 14 -30 17 -54 2 -24 9 -49 14 -54 19 -19 13 -40 -9 -34 -23 6 -26 -5 -7
-22 23 -18 42 -88 29 -104 -7 -8 -11 -31 -9 -53 2 -32 -1 -38 -15 -36 -12 2
-15 -3 -11 -18 3 -11 0 -26 -6 -33 -6 -8 -11 -38 -12 -68 -1 -30 -6 -57 -11
-60 -5 -3 -11 -39 -13 -80 -9 -162 -26 -425 -30 -435 -2 -6 1 -17 6 -25 6 -10
9 -2 9 23 0 21 11 66 24 100 25 66 46 146 46 176 0 22 22 72 32 72 4 0 5 13 2
29 -4 16 -1 32 5 35 6 4 9 12 5 17 -3 5 0 25 6 44 6 19 12 99 12 179 1 122 4
143 16 138 12 -4 14 4 10 47 -3 29 -11 57 -18 61 -9 6 -10 12 -1 26 8 15 11
16 12 4 1 -8 5 10 8 40 7 51 5 56 -21 82 -15 15 -28 34 -28 43 0 20 10 19 26
-2 22 -31 29 -4 11 46 -21 60 -21 65 1 57 12 -4 11 -1 -6 13 -21 19 -22 20 -5
33 11 8 19 27 19 48 0 19 6 45 13 58 6 12 8 22 2 22 -11 0 -20 57 -11 67 4 5
10 25 13 45 5 31 2 40 -15 49 -14 8 -18 17 -13 32 3 12 8 45 9 72 2 28 6 57
10 66 5 12 1 18 -13 22 -28 7 -26 20 4 48 25 24 33 63 16 74 -5 3 -12 -4 -16
-15 -17 -53 -44 11 -47 108 -1 34 -6 62 -10 62 -5 0 -8 12 -7 28 4 55 -1 74
-21 79 -21 6 -27 28 -10 38 6 4 18 1 26 -6 9 -7 34 -14 56 -15 22 -1 45 -7 50
-12 17 -17 2 -41 -29 -48 -53 -11 -56 -13 -44 -28 16 -19 58 -8 80 21 15 18
17 30 11 53 -13 44 -21 55 -31 39 -7 -11 -12 -12 -29 -1 -11 6 -27 12 -35 12
-8 0 -15 7 -15 15 0 18 17 20 23 3 2 -7 8 0 12 16 6 20 4 31 -3 34 -7 2 -12
14 -12 27 0 26 -18 36 -48 28 -28 -7 -65 15 -57 34 3 9 0 20 -7 25 -12 7 -8 8
40 8 4 0 7 -4 7 -10 0 -5 5 -10 10 -9 6 0 9 6 7 13 -3 17 35 28 42 12 2 -6 5
-1 5 11 1 12 -7 27 -16 32 -16 10 -17 12 -2 24 9 6 19 22 23 34 7 23 10 21
-101 69 -45 20 -54 38 -16 32 27 -4 29 -2 29 27 1 16 4 45 9 63 6 27 5 31 -8
26 -8 -3 -17 -14 -20 -25 -5 -19 -37 -28 -37 -10 0 5 -13 12 -30 16 -39 9 -39
25 1 25 25 0 30 4 27 21 -2 15 -20 28 -70 47 -37 14 -63 29 -57 32 6 4 4 12
-6 20 -13 11 -13 15 -3 21 9 6 4 9 -14 9 -31 0 -44 29 -35 75 5 29 -3 37 -47
41 -69 8 -73 34 -5 34 21 0 39 5 39 10 0 6 -27 10 -61 10 -34 0 -75 6 -92 14
-18 8 -49 20 -69 26 -41 13 -52 33 -15 28 35 -5 32 16 -5 28 -19 7 -39 23 -46
38 -7 14 -17 26 -22 26 -5 0 -11 8 -14 18 -3 10 -17 18 -33 19 -37 4 -52 7
-88 22 -16 7 -55 14 -86 16 -31 1 -70 10 -87 19 -17 9 -44 16 -61 16 -16 0
-32 4 -36 10 -3 5 -31 17 -63 26 -31 10 -64 24 -73 31 -8 7 -25 13 -36 13 -12
0 -23 7 -27 15 -4 11 -21 15 -61 15 -39 0 -55 4 -55 13 0 10 -18 14 -63 15
-35 1 -76 8 -91 16 -16 8 -34 12 -41 10 -23 -9 -25 25 -3 40 12 9 20 17 17 19
-7 5 -198 -11 -282 -23 -88 -13 -108 -10 -101 17 4 16 -3 18 -53 21 -32 1 -62
3 -68 3 -5 1 -18 -2 -27 -6 -11 -4 -18 -3 -18 4 0 9 -5 9 -20 1 -11 -6 -19
-16 -17 -22 3 -16 -53 -46 -88 -47 -28 -1 -28 0 -12 16 9 10 29 18 45 19 15 1
30 3 35 3 4 1 7 5 7 11 0 12 -74 5 -151 -15 -52 -14 -184 -70 -261 -111 -26
-14 -56 -10 -71 10 -5 6 -5 1 -2 -11 6 -20 3 -23 -23 -23 -16 0 -35 -7 -42
-15 -16 -20 -32 -8 -24 17 5 18 3 20 -12 14 -11 -5 -24 -9 -31 -10 -17 -3
-103 -66 -103 -75 0 -4 -11 -14 -25 -21 -13 -7 -22 -17 -19 -22 3 -4 -5 -8
-18 -8 -27 0 -78 -21 -78 -32 0 -5 -6 -8 -13 -8 -7 0 -17 -13 -23 -28 -8 -21
-20 -31 -42 -35 -18 -4 -33 -14 -37 -27 -3 -11 -17 -23 -31 -26 -13 -3 -36
-20 -50 -37 l-27 -32 7 45 7 45 -20 -25 c-12 -14 -30 -35 -42 -47 -18 -17 -21
-29 -16 -62 4 -35 2 -41 -11 -39 -11 2 -17 -4 -18 -17 -2 -39 -4 -45 -15 -45
-6 0 -9 7 -5 15 10 27 -9 16 -22 -13 -20 -41 -35 -113 -33 -155 2 -35 0 -38
-19 -32 -16 5 -20 2 -20 -14 0 -29 -50 -30 -57 -1 -3 11 -11 20 -18 20 -6 0
-30 13 -52 29 -22 16 -53 36 -69 44 -16 8 -42 27 -59 41 -16 14 -36 26 -42 26
-7 0 -13 12 -13 26 0 24 -1 24 -22 10 -34 -24 -45 -19 -52 23 -3 21 -13 44
-22 51 -11 10 -15 29 -14 69 2 78 0 90 -9 66 -5 -11 -6 -43 -4 -71 5 -46 3
-52 -16 -57 -16 -4 -21 -1 -21 13 0 29 -22 70 -37 70 -20 0 -16 18 7 30 24 13
27 50 4 50 -11 0 -14 -5 -10 -16 9 -24 -2 -36 -24 -24 -13 7 -21 5 -31 -6 -11
-14 -10 -15 7 -12 11 2 18 -2 16 -10 -1 -7 5 -15 13 -18 23 -9 18 -27 -15 -52
-17 -14 -27 -29 -23 -38 3 -8 1 -14 -5 -14 -5 0 -12 9 -15 21 -5 17 -9 19 -26
9 -12 -6 -21 -15 -21 -20 0 -19 -18 -10 -23 11 -4 15 -11 19 -25 15 -38 -12
-52 3 -52 55 0 27 -4 49 -9 49 -5 0 -13 9 -16 21 -5 15 2 32 25 60 30 38 32
66 3 55 -9 -4 -18 4 -24 24 -6 16 -20 32 -31 36 -12 3 -30 17 -42 31 -21 24
-22 24 -61 8 -22 -9 -50 -28 -61 -43 -27 -34 -41 -92 -23 -92 15 0 77 19 101
31 10 5 32 9 50 9 l33 0 -33 -20 c-34 -21 -35 -46 -1 -37 24 6 39 -51 17 -67
-8 -6 -13 -17 -11 -24 3 -7 -1 -10 -11 -6 -9 3 -13 11 -10 16 4 6 -1 8 -12 4
-17 -5 -19 -1 -15 46 3 44 1 50 -14 44 -9 -3 -19 -6 -21 -6 -2 0 -4 -9 -4 -20
0 -11 -6 -23 -14 -26 -8 -3 -22 -23 -30 -45 -9 -21 -20 -39 -26 -39 -5 0 -10
-8 -10 -17 -1 -17 -1 -17 -11 0 -6 9 -14 15 -20 12 -5 -4 -9 1 -9 9 0 11 -10
15 -40 13 -31 -1 -40 -5 -40 -19 0 -10 5 -18 10 -18 6 0 10 5 10 11 0 5 4 8
10 4 5 -3 7 -12 4 -20 -4 -8 -10 -12 -15 -9 -5 3 -9 -6 -9 -21 0 -30 24 -43
46 -24 9 7 31 19 50 25 29 10 33 9 32 -5 -3 -37 3 -50 24 -53 12 -2 23 -9 26
-16 3 -9 -2 -10 -22 -2 -30 11 -49 -7 -22 -22 18 -10 13 -47 -8 -60 -6 -4 -7
-11 -2 -15 4 -4 14 0 21 10 13 18 15 18 49 2 26 -12 36 -23 35 -39 -1 -17 -2
-17 -6 -3 -2 9 -9 17 -14 17 -5 0 -13 -8 -16 -17 -4 -10 -11 -21 -17 -25 -8
-5 -7 -8 1 -8 8 0 12 -13 11 -35 -1 -40 -5 -42 -24 -17 -13 16 -13 16 -14 -3
0 -18 -2 -17 -18 7 -24 36 -47 23 -39 -23 3 -19 2 -43 -3 -54 -7 -16 -9 -17
-9 -3 -1 22 -13 29 -59 34 -20 3 -38 9 -40 14 -2 6 -10 10 -17 10 -17 0 -28
31 -15 44 14 14 13 59 -2 74 -12 12 -12 12 37 27 19 6 20 68 1 84 -14 12 -46
5 -46 -9 0 -5 -9 -6 -20 -3 -20 5 -28 23 -10 23 6 0 10 4 10 10 0 5 -14 1 -30
-8 -21 -11 -29 -23 -26 -34 6 -24 -14 -35 -26 -15 -5 9 -15 14 -22 11 -8 -3
-26 2 -41 12 -39 25 -98 27 -123 4 -29 -27 -36 -25 -57 15 -22 40 -11 60 15
28 28 -35 42 -27 20 12 -23 41 -17 62 19 77 21 9 23 12 9 15 -10 3 -18 8 -18
13 0 5 -9 11 -19 15 -17 5 -18 10 -9 41 7 26 6 39 -3 50 -6 8 -13 40 -14 71
-1 33 -6 58 -13 61 -7 2 -12 10 -12 18 0 8 -4 14 -10 14 -6 0 -6 -10 1 -27 11
-28 1 -47 -18 -35 -14 9 -17 44 -9 120 2 28 1 52 -4 52 -5 0 -10 -17 -12 -37
-2 -20 -9 -38 -16 -41 -9 -3 -11 3 -7 21 7 25 -8 46 -20 27 -11 -19 -24 -10
-36 25 -16 42 -34 40 -34 -3 0 -16 -3 -28 -7 -26 -4 3 -15 -4 -25 -16 -10 -11
-20 -20 -24 -20 -12 0 -43 54 -42 73 2 14 -2 15 -18 7 -10 -6 -19 -16 -19 -22
0 -6 -3 -8 -6 -5 -4 3 -16 1 -28 -5 -21 -12 -21 -12 3 -18 23 -5 23 -6 7 -23
-10 -9 -26 -17 -37 -17 -17 0 -20 6 -17 33 3 32 -2 35 -42 26 -12 -3 -14 6
-12 51 2 30 7 59 12 64 17 17 40 -3 40 -33 0 -25 5 -32 27 -37 14 -4 34 -2 45
5 10 6 23 9 28 6 6 -4 10 9 10 29 0 20 -4 36 -10 36 -5 0 -10 -7 -10 -15 0
-10 -10 -15 -29 -15 -33 0 -44 20 -45 80 -1 30 -4 35 -23 33 -19 -2 -23 2 -23
27 0 34 0 34 35 18 14 -6 25 -19 25 -30 0 -10 7 -18 15 -18 8 0 15 -9 15 -21
0 -11 4 -17 10 -14 17 11 11 43 -10 50 -14 4 -20 15 -20 36 0 33 7 37 25 12
13 -18 35 -10 35 12 0 19 -36 38 -59 30 -15 -5 -20 1 -25 32 -10 57 -10 76 -1
98 8 18 7 18 -8 6 -24 -19 -32 6 -18 56 15 52 14 53 -14 53 -19 0 -26 7 -31
28 -4 15 -11 33 -17 40 -5 6 -7 24 -4 40 3 15 2 43 -2 62 -6 29 -11 35 -34 35
-15 1 -35 9 -44 18 -16 16 -15 17 17 19 19 0 41 1 47 1 15 -1 17 23 3 32 -7 4
-7 12 0 25 17 32 12 52 -12 48 -19 -2 -23 1 -21 20 2 17 -2 22 -21 22 -13 0
-29 -7 -36 -15 -7 -8 -16 -15 -21 -15 -5 0 -9 7 -9 15 0 20 -16 19 -38 -3 -26
-26 -6 -54 34 -48 16 2 23 1 17 -1 -7 -2 -13 -8 -13 -13 0 -5 -16 -7 -35 -6
-30 3 -35 0 -36 -18 -1 -17 -2 -18 -6 -3 -2 9 -9 17 -14 17 -5 0 -9 9 -9 20 0
11 -7 20 -15 20 -8 0 -17 11 -21 25 l-6 25 -155 0 c-91 0 -152 -4 -149 -9z
m282 -960 c19 -7 34 -17 34 -22 0 -5 6 -9 14 -9 21 0 46 -43 35 -62 -6 -12 -4
-17 11 -21 26 -7 26 -37 0 -87 -20 -40 -51 -53 -66 -29 -10 17 -57 1 -81 -28
l-22 -27 -25 25 c-14 13 -26 30 -26 37 0 15 22 16 38 0 16 -16 15 3 -1 26 -18
24 -70 12 -62 -14 3 -10 1 -21 -4 -25 -14 -8 -25 39 -18 74 7 32 -1 71 -14 71
-5 0 -9 -11 -9 -25 0 -20 -24 -45 -43 -45 -3 0 -5 24 -5 52 -1 55 8 68 45 68
12 0 27 9 33 20 8 14 21 20 45 20 19 0 35 5 35 10 0 6 7 10 15 10 8 0 15 8 16
18 0 14 2 14 10 -4 6 -11 26 -26 45 -33z m528 -340 c0 -11 2 -21 5 -22 3 -1
18 -2 33 -3 14 -2 34 -10 43 -19 9 -10 22 -17 28 -18 16 0 54 -50 59 -74 2
-12 -4 -21 -14 -23 -13 -2 -18 3 -18 17 0 12 -4 21 -10 21 -5 0 -10 8 -10 18
0 29 -10 32 -39 12 -14 -10 -46 -20 -71 -24 -25 -3 -59 -12 -75 -20 -35 -18
-49 -12 -32 14 9 16 9 24 -2 42 -11 18 -11 22 4 30 12 7 15 17 10 39 -5 23 -3
29 11 29 10 0 29 -10 42 -22 l25 -23 -5 28 c-4 18 -1 26 6 24 6 -2 11 -14 10
-26z m1056 -161 c0 -11 -6 -20 -14 -20 -21 0 -27 -27 -11 -44 8 -8 15 -19 15
-24 0 -5 9 -16 20 -23 27 -18 40 -89 17 -89 -9 0 -19 -5 -22 -10 -9 -15 15
-42 31 -36 7 3 15 0 17 -7 3 -7 8 -4 12 8 3 11 11 28 16 37 10 20 1 78 -12 78
-11 0 -12 60 -1 60 4 0 18 3 31 7 23 6 23 5 17 -38 -5 -32 -4 -40 3 -29 9 12
11 11 11 -7 0 -20 3 -20 33 -11 17 6 39 14 47 18 9 4 21 -1 31 -14 20 -25 29
-19 38 26 5 26 12 34 34 36 29 4 37 -12 12 -22 -17 -6 -21 -46 -4 -46 6 0 8 7
5 16 -4 10 0 18 13 21 11 3 22 11 25 19 3 7 12 11 21 8 22 -9 19 -24 -5 -24
-19 0 -29 -25 -12 -32 16 -7 72 -93 72 -110 0 -10 6 -27 12 -38 10 -16 9 -25
-5 -49 -15 -25 -15 -30 -2 -35 22 -8 18 -26 -4 -26 -11 0 -29 -13 -41 -30 -12
-16 -27 -30 -34 -30 -8 0 -16 -17 -19 -42 -7 -52 -36 -92 -72 -98 -16 -3 -28
-8 -27 -12 1 -4 -1 -15 -5 -23 -4 -13 -11 -9 -34 16 -35 39 -39 74 -9 66 11
-3 20 -2 20 1 0 4 3 17 6 30 6 21 3 22 -42 22 -52 0 -57 -8 -6 -12 18 -1 32
-3 32 -4 0 -2 -14 -10 -31 -18 -34 -17 -63 -7 -53 18 3 8 -2 16 -10 19 -9 4
-16 13 -16 22 0 8 -7 15 -15 15 -13 0 -15 -7 -9 -37 4 -21 12 -49 19 -63 22
-43 79 -98 108 -105 15 -4 27 -11 27 -16 0 -4 -13 -31 -30 -59 -16 -28 -30
-59 -30 -68 -1 -15 -2 -15 -11 1 -10 18 -12 18 -30 1 -22 -20 -25 -40 -7 -46
10 -4 10 -10 1 -31 -10 -21 -20 -27 -43 -27 -16 0 -30 -5 -30 -11 0 -6 7 -8
16 -5 12 4 15 0 12 -16 -4 -33 -38 -37 -38 -5 0 14 -7 30 -15 37 -12 10 -20 6
-46 -19 -22 -22 -26 -31 -14 -31 8 0 18 7 21 15 8 21 22 10 39 -32 21 -50 19
-73 -5 -73 -11 0 -22 1 -23 3 -2 1 -11 -4 -20 -11 -13 -11 -21 -8 -51 22 -51
49 -49 84 6 111 41 20 68 49 56 60 -3 4 -33 1 -67 -6 -82 -16 -111 -8 -111 31
0 19 5 30 14 30 11 0 13 9 9 34 -4 28 -1 39 19 58 23 22 24 25 11 56 -7 18
-18 30 -23 27 -6 -4 -10 8 -10 29 0 19 -3 41 -6 49 -4 11 4 17 26 22 39 8 60
-8 60 -46 0 -15 5 -31 10 -34 6 -3 10 5 10 19 0 32 10 57 20 51 4 -3 11 6 14
20 4 14 11 25 16 25 6 0 10 11 10 25 0 14 6 25 13 25 9 0 12 11 9 36 -3 24 0
39 9 45 11 7 9 12 -9 25 -20 14 -23 22 -17 50 5 31 4 34 -20 34 -16 0 -25 -6
-25 -16 0 -8 4 -13 9 -9 5 3 12 1 16 -5 3 -5 -3 -10 -15 -10 -11 0 -23 -7 -26
-15 -7 -18 -24 -20 -24 -2 0 7 -9 21 -21 31 -15 12 -19 24 -15 39 14 45 15 57
5 62 -5 4 -9 11 -9 16 0 6 4 8 9 4 5 -3 12 4 16 15 3 11 11 20 16 20 5 0 9 7
9 15 0 16 -30 10 -42 -9 -12 -18 -15 -2 -6 33 7 25 12 31 21 22 25 -25 40 -13
33 29 -5 35 -4 40 14 41 32 2 38 4 46 12 11 11 14 9 14 -13z m513 -162 c26
-15 52 -28 57 -28 25 0 15 -23 -34 -75 -53 -55 -55 -56 -66 -34 -15 27 -49
167 -43 173 7 7 31 -4 86 -36z m-1917 -185 c-20 -70 -20 -74 8 -67 36 9 77 -3
70 -20 -3 -8 -14 -16 -26 -19 -14 -4 -18 -11 -14 -24 7 -22 -2 -36 -30 -51
-30 -16 -48 19 -35 65 9 30 8 32 -9 23 -47 -25 -80 -1 -80 58 0 38 9 45 36 27
21 -14 24 -13 34 5 14 26 54 28 46 3z m-168 -50 c-2 -13 3 -17 20 -16 16 2 22
-2 22 -17 0 -25 -25 -37 -44 -21 -10 9 -12 1 -11 -43 1 -29 6 -59 10 -65 9
-15 -13 -71 -29 -72 -6 -1 -26 -1 -44 -1 -18 0 -45 -6 -60 -14 -15 -8 -30 -14
-33 -14 -14 0 -18 61 -5 90 15 37 15 37 44 21 18 -10 23 -9 28 4 7 17 34 21
34 5 0 -5 9 -10 20 -10 11 0 20 5 20 10 0 6 -6 10 -13 10 -8 0 -12 11 -11 28
1 15 3 46 3 69 1 40 6 46 44 52 4 0 7 -7 5 -16z m972 -77 c0 -3 -5 -17 -10
-32 -6 -15 -8 -35 -4 -46 5 -18 6 -19 19 -2 11 16 15 16 29 5 17 -14 23 -56 6
-46 -5 3 -10 2 -10 -3 0 -6 7 -12 15 -16 8 -3 15 -14 15 -25 0 -11 4 -22 9
-25 16 -10 32 21 26 51 -5 21 -4 24 4 13 14 -19 14 -60 0 -60 -6 0 -8 -8 -4
-19 8 -25 -4 -51 -20 -45 -7 3 -15 14 -18 23 -3 12 -14 19 -29 19 -60 0 -116
74 -110 145 3 32 7 37 28 37 15 0 24 6 24 15 0 8 7 15 15 15 8 0 15 -2 15 -4z
m645 -738 c6 -46 4 -63 -9 -83 -9 -14 -18 -51 -20 -82 -3 -32 -8 -57 -13 -55
-4 1 -8 10 -8 19 0 10 -8 19 -17 21 -14 3 -16 14 -15 58 1 30 5 54 10 54 4 0
7 7 7 15 0 9 -6 12 -15 9 -12 -5 -15 3 -15 35 0 24 5 41 12 41 6 0 3 9 -7 20
-10 11 -24 20 -30 20 -14 0 -27 25 -18 34 12 12 33 6 33 -9 0 -23 16 -18 35
11 l17 26 23 -38 c13 -22 26 -65 30 -96z m-1177 -1494 c18 -15 32 -32 32 -39
0 -7 13 -15 30 -18 21 -5 28 -11 24 -22 -3 -8 -14 -15 -24 -15 -17 0 -36 -27
-26 -37 2 -3 18 3 35 11 16 9 41 16 56 16 15 0 25 6 25 14 0 8 10 16 23 18 14
2 21 9 19 20 -2 14 2 15 33 5 32 -9 34 -12 18 -21 -10 -6 -21 -11 -25 -12 -5
-1 -11 -3 -15 -4 -5 -2 -15 -3 -23 -4 -8 -1 -16 -11 -18 -24 -3 -17 -9 -22
-28 -20 -25 3 -25 3 -29 -94 -2 -54 -7 -103 -10 -109 -19 -29 -174 -48 -182
-21 -3 6 2 12 11 12 9 0 16 5 16 10 0 16 -27 11 -34 -6 -5 -12 -16 -14 -53
-10 -27 2 -58 5 -70 5 -20 1 -22 5 -16 34 3 17 10 40 14 49 11 21 -9 37 -22
17 -13 -22 -21 -3 -14 32 5 23 10 28 16 18 8 -12 11 -12 19 1 15 23 12 68 -6
78 -22 12 -9 32 16 25 21 -6 58 29 60 57 1 13 2 13 8 0 13 -28 46 -60 64 -60
11 0 18 -9 20 -27 2 -16 7 -27 12 -25 12 3 8 114 -5 127 -14 14 -11 45 4 45 7
0 28 -12 45 -26z m562 -2 c0 -5 17 -13 37 -18 32 -8 40 -15 54 -54 9 -24 23
-46 30 -49 22 -7 29 -23 29 -74 0 -53 0 -53 -76 -60 l-50 -6 -17 55 c-11 35
-15 69 -11 95 10 59 31 48 26 -13 -1 -10 1 -18 4 -18 13 0 34 30 34 48 0 19
-32 56 -41 47 -3 -2 -13 9 -23 25 -9 17 -12 30 -7 30 6 0 11 -4 11 -8z m640
-1751 c-5 -10 -8 -32 -8 -49 1 -40 28 -44 28 -4 0 38 11 72 22 72 6 0 7 -10 4
-22 -6 -19 -14 -211 -13 -303 2 -279 1 -368 -5 -372 -5 -2 -8 17 -8 44 0 73
-11 123 -26 123 -17 0 -18 -12 -3 -27 16 -16 18 -64 4 -69 -11 -4 -25 -59 -29
-108 -1 -5 -5 -11 -11 -13 -10 -3 -10 594 0 692 5 44 9 50 30 51 20 2 23 -1
15 -15z"/>
<path d="M1075 8390 c4 -6 -6 -10 -21 -10 -25 0 -26 -1 -10 -13 16 -12 16 -14
-2 -30 -42 -38 3 -86 95 -102 28 -4 32 -2 38 25 4 16 4 34 1 39 -4 5 -2 12 3
15 5 4 11 -6 13 -21 4 -39 28 -42 28 -3 0 33 -15 70 -28 70 -5 0 -14 -15 -21
-33 -10 -25 -20 -33 -40 -35 -22 -1 -24 0 -10 11 9 7 19 26 23 42 5 26 2 32
-21 43 -32 15 -57 16 -48 2z"/>
<path d="M2484 8053 c15 -60 15 -158 0 -190 -17 -38 -29 -42 -37 -13 -9 34
-27 23 -20 -12 7 -41 12 -46 23 -28 7 12 12 12 34 0 21 -11 24 -18 19 -39 -7
-29 -20 -41 -45 -41 -14 0 -12 -5 9 -27 14 -16 29 -37 34 -48 7 -19 8 -19 8 3
1 25 26 30 35 6 3 -8 1 -25 -5 -36 -7 -14 -8 -28 0 -46 5 -15 12 -40 14 -57 2
-16 5 -4 6 28 1 41 5 59 16 63 8 4 15 18 15 34 0 19 6 29 20 33 12 3 20 14 20
26 0 14 -5 19 -15 15 -11 -5 -15 2 -15 26 0 31 -1 32 -35 26 -33 -6 -35 -5
-35 19 0 14 5 25 10 25 6 0 10 -5 10 -12 0 -6 3 -9 6 -6 3 4 -6 50 -21 103
-14 54 -25 114 -23 133 2 29 -1 37 -16 40 -16 3 -18 0 -12 -25z"/>
<path d="M6845 6626 c5 -26 3 -35 -10 -40 -9 -3 -13 -10 -10 -16 8 -12 -20
-24 -39 -17 -21 8 -8 45 18 50 11 2 4 5 -17 6 -34 1 -39 -2 -52 -31 -11 -28
-11 -37 1 -61 15 -29 12 -47 -9 -47 -18 0 -36 35 -30 58 2 11 0 23 -6 26 -8 5
-8 13 0 27 17 33 0 36 -25 4 -18 -23 -22 -35 -16 -61 8 -35 -13 -57 -25 -27
-4 12 -9 13 -17 5 -7 -7 -8 -16 -2 -24 6 -7 11 -25 12 -39 2 -20 -2 -28 -18
-32 -12 -3 -19 -10 -15 -16 3 -6 -1 -11 -9 -11 -25 0 -19 -15 19 -49 19 -17
35 -39 35 -50 0 -27 20 -38 32 -17 12 22 38 20 38 -3 0 -11 5 -23 10 -26 11
-7 12 17 1 55 -4 16 -14 25 -29 26 -23 1 -52 21 -52 35 0 4 9 11 21 14 17 6
20 13 16 51 -3 36 0 47 15 55 21 11 21 11 18 -58 -1 -41 2 -54 14 -59 10 -4
16 -18 16 -37 0 -21 3 -28 10 -21 7 7 7 19 1 35 -6 18 -5 30 5 44 8 10 14 38
14 62 0 52 14 56 30 8 10 -29 14 -34 26 -24 8 6 14 26 14 43 0 20 7 37 20 46
11 8 20 26 20 40 l1 25 14 -25 c13 -23 14 -24 21 -6 5 13 3 21 -4 24 -7 2 -21
24 -32 48 -24 53 -33 56 -25 10z"/>
<path d="M7653 6582 c0 -45 -30 -142 -44 -142 -12 0 -12 -77 0 -84 14 -9 7
-34 -15 -59 -10 -12 -19 -29 -19 -37 0 -11 -11 -14 -45 -11 -25 1 -48 5 -52 8
-5 2 -8 -3 -8 -11 0 -9 9 -17 20 -17 26 -2 30 -3 63 -19 34 -17 35 -34 1 -27
-19 3 -24 1 -20 -10 3 -8 6 -20 6 -28 0 -7 14 -15 30 -18 18 -4 30 -13 30 -22
0 -9 5 -13 10 -10 6 3 10 -1 10 -9 0 -9 -7 -16 -15 -16 -9 0 -18 -7 -21 -15
-5 -12 -10 -13 -19 -5 -16 14 -35 -15 -35 -53 0 -22 2 -23 48 -16 26 4 63 12
82 18 74 24 240 53 240 42 0 -17 -77 -42 -195 -64 -33 -6 -62 -14 -65 -17 -10
-10 -76 -29 -127 -36 -47 -6 -53 -9 -54 -30 -2 -41 -3 -43 -27 -60 -17 -12
-26 -13 -37 -4 -9 7 -15 8 -20 0 -3 -5 -15 -10 -26 -10 -10 0 -27 -4 -37 -9
-30 -17 -123 -42 -174 -48 -51 -6 -67 -18 -50 -35 7 -7 30 -4 74 10 34 11 108
32 163 47 55 14 108 31 117 36 10 5 25 9 33 9 9 0 55 11 103 24 108 29 267 65
307 68 23 2 31 9 33 26 2 15 16 29 38 39 23 11 34 24 34 38 0 11 4 25 9 31 6
5 1 13 -14 21 -21 9 -29 8 -50 -9 -21 -16 -25 -17 -25 -4 0 9 -6 16 -14 16 -8
0 -16 6 -19 13 -3 9 -10 7 -25 -6 -13 -12 -28 -16 -41 -12 -24 7 -26 22 -6 49
28 37 18 83 -17 77 -5 0 -8 3 -8 9 0 6 -4 10 -9 10 -5 0 -7 -25 -5 -55 4 -45
2 -58 -15 -76 -23 -25 -41 -18 -41 17 0 22 -9 28 -36 25 -7 -1 -14 5 -18 14
-3 8 -12 15 -21 15 -19 0 -19 14 0 30 10 8 15 31 15 71 0 37 4 59 11 59 7 0 9
11 6 30 -6 26 -2 32 23 45 52 27 32 47 -24 25 -18 -6 -27 -6 -32 2 -4 7 -3 13
3 15 6 2 19 10 29 18 16 12 17 16 4 24 -12 8 -12 17 -2 58 12 47 9 83 -8 83
-4 0 -7 -17 -7 -38z"/>
<path d="M7890 6442 c-31 -4 -51 -32 -43 -61 7 -27 21 -27 32 1 7 21 8 21 15
-7 5 -21 3 -32 -8 -41 -9 -6 -16 -21 -16 -33 0 -11 -4 -21 -10 -21 -13 0 -13
-81 1 -117 l11 -28 18 22 c10 13 30 27 44 33 24 9 39 50 19 50 -16 0 -33 56
-33 107 0 30 -5 53 -10 53 -7 0 -7 7 0 21 14 24 13 25 -20 21z"/>
<path d="M804 6205 c-1 -15 3 -25 12 -25 16 0 19 -16 4 -25 -5 -3 -10 -1 -10
4 0 6 -4 11 -10 11 -5 0 -10 -11 -10 -24 0 -17 7 -26 25 -30 20 -5 25 -13 25
-36 0 -29 -8 -34 -48 -33 -9 1 -5 -8 9 -23 24 -25 61 -33 58 -11 -6 44 14 66
26 28 3 -12 19 -22 38 -26 18 -4 37 -12 44 -17 17 -14 58 -6 58 12 0 9 -13 17
-35 20 -69 12 -116 58 -104 104 5 20 -1 32 -33 61 -21 19 -40 35 -43 35 -3 0
-6 -11 -6 -25z"/>
<path d="M7227 6092 c-5 -7 -5 -21 -2 -32 5 -17 1 -21 -24 -26 -21 -5 -31 -12
-31 -25 0 -11 -9 -21 -24 -25 -14 -3 -27 -12 -30 -20 -7 -18 -2 -18 34 1 28
15 30 14 44 -13 8 -15 12 -41 10 -57 -2 -17 -1 -24 2 -17 3 6 14 12 25 12 15
0 19 7 19 35 0 24 5 35 15 35 9 0 15 -9 15 -25 0 -23 3 -25 28 -19 37 9 36 8
36 64 0 48 -12 78 -21 53 -8 -22 -25 -14 -18 7 3 11 3 30 -1 43 -7 21 -7 21
-15 2 -4 -11 -8 -35 -8 -53 -1 -29 -3 -32 -20 -22 -14 7 -21 23 -23 53 -2 26
-6 37 -11 29z"/>
<path d="M2955 6059 c-4 -6 -24 -10 -44 -8 -51 3 -63 0 -56 -10 3 -6 -3 -9
-12 -9 -58 3 -149 -13 -160 -28 -6 -9 -16 -13 -22 -9 -6 3 -11 1 -11 -4 0 -6
-4 -11 -10 -11 -5 0 -9 6 -7 12 1 7 -8 14 -20 16 -13 2 -23 7 -23 12 0 5 -10
15 -22 21 -17 9 -28 8 -54 -6 -18 -9 -35 -27 -38 -38 -3 -12 -8 -18 -12 -14
-11 11 -66 -34 -60 -49 3 -8 -6 -20 -24 -29 -17 -9 -30 -20 -30 -25 0 -6 -6
-10 -14 -10 -7 0 -16 -10 -19 -22 -4 -12 -9 -19 -13 -15 -9 9 -61 -29 -75 -54
-9 -17 -7 -20 8 -17 10 2 26 11 35 21 16 18 17 18 36 -1 23 -23 17 -36 -18
-40 -14 -2 -31 -9 -37 -16 -10 -9 -4 -11 27 -11 22 0 40 3 40 6 0 12 31 4 39
-10 6 -10 19 -9 59 4 l52 17 35 -31 c20 -17 41 -32 48 -32 7 -1 50 -2 96 -3
58 -1 86 -5 88 -13 3 -7 18 -13 34 -13 16 0 29 -5 29 -11 0 -6 6 -9 14 -6 8 3
17 0 19 -8 7 -16 -1 -25 -23 -25 -17 0 -47 -27 -39 -34 2 -3 29 -7 59 -10 30
-3 80 -14 110 -26 30 -11 56 -20 57 -20 2 0 3 -4 3 -10 0 -5 -13 -10 -29 -10
-17 0 -33 5 -36 10 -10 16 -225 12 -302 -5 -78 -18 -81 -19 -184 -69 -42 -20
-81 -36 -86 -34 -16 5 -78 -66 -75 -85 2 -10 -1 -23 -6 -30 -6 -7 -13 -28 -17
-47 -5 -28 -2 -41 14 -59 12 -13 21 -28 21 -33 0 -4 19 -8 43 -8 42 0 87 26
87 50 0 22 44 0 47 -23 4 -22 10 -30 22 -23 7 5 10 18 7 29 -3 12 0 27 6 34
11 14 50 18 62 6 4 -5 11 -8 14 -9 8 -1 34 -11 82 -33 l35 -15 -60 -6 c-58 -6
-59 -6 -32 -18 16 -7 31 -12 33 -12 7 0 34 -27 34 -34 0 -3 -29 -4 -65 -2 -69
4 -88 -7 -30 -18 63 -12 53 -29 -14 -24 -58 4 -70 1 -53 -16 4 -4 7 -26 7 -48
0 -37 4 -44 47 -72 25 -17 48 -39 51 -48 3 -10 15 -18 26 -18 12 0 21 -4 21
-9 0 -10 78 -41 103 -41 10 0 20 7 23 15 6 13 8 14 18 1 10 -13 62 -31 79 -28
4 1 10 -5 13 -13 8 -19 24 -19 24 0 0 17 16 20 25 5 9 -15 43 -12 52 3 4 8 29
17 55 20 25 4 69 20 97 37 29 16 60 30 71 30 10 0 27 11 38 25 11 14 24 25 30
25 5 0 25 13 43 30 34 29 57 43 92 54 9 3 21 16 27 30 5 13 19 27 32 31 71 20
102 44 61 46 -10 0 -2 6 17 13 19 7 36 20 38 29 2 9 13 17 25 19 18 2 23 11
25 48 2 27 9 48 18 53 8 5 19 19 24 33 6 16 15 22 25 18 21 -9 54 23 48 45 -4
15 0 18 21 14 14 -3 47 0 74 6 40 10 53 9 77 -3 17 -9 36 -16 43 -16 6 0 12
-4 12 -8 0 -4 16 -14 37 -21 42 -15 107 -76 100 -94 -2 -7 6 -23 18 -37 12
-14 26 -42 29 -62 6 -32 4 -38 -11 -39 -16 0 -16 -1 1 -8 11 -4 25 -23 32 -42
l11 -34 13 27 c13 28 13 28 28 7 12 -18 13 -23 1 -30 -10 -6 -6 -9 13 -9 26 0
58 -22 58 -41 0 -5 11 -11 24 -15 14 -3 27 -11 29 -18 3 -6 31 -32 63 -56 33
-25 64 -50 69 -56 6 -6 30 -17 54 -24 24 -8 45 -20 48 -27 3 -7 13 -13 23 -13
11 0 34 -8 52 -18 29 -16 57 -18 230 -18 189 1 198 2 212 22 9 12 28 24 44 27
25 5 29 10 25 32 -3 14 0 32 7 40 20 24 3 33 -81 41 -64 5 -87 12 -109 30 -15
13 -38 24 -50 24 -11 0 -19 4 -15 9 3 5 -1 16 -9 24 -8 8 -12 17 -9 21 4 3
-12 6 -35 6 -59 0 -64 20 -5 21 95 2 169 7 251 19 l83 12 74 -36 c41 -20 79
-45 85 -56 7 -12 21 -20 37 -20 26 0 26 0 7 22 -20 23 -20 23 31 2 21 -9 31
41 14 73 -8 15 -22 28 -31 31 -10 2 -18 9 -18 14 0 5 4 7 9 3 17 -10 22 13 6
27 -9 7 -24 20 -33 29 -17 15 -48 37 -111 77 -134 85 -318 142 -464 142 -44 0
-58 3 -47 10 8 5 31 10 50 10 24 0 39 6 48 20 8 13 9 20 1 20 -6 0 -9 10 -7
23 2 15 17 29 45 42 23 11 42 26 43 33 0 10 9 12 33 7 17 -4 35 -12 38 -17 3
-5 12 -2 19 7 10 12 16 13 27 3 11 -9 21 -8 44 6 33 20 49 15 29 -9 -11 -13
-9 -15 14 -15 23 0 25 2 16 19 -7 13 -7 22 0 26 5 3 10 -1 10 -9 0 -24 15 -27
50 -10 23 12 35 13 43 5 19 -19 27 -12 27 20 0 32 5 34 53 14 12 -5 17 -2 17
9 0 18 48 22 96 7 55 -18 84 -21 84 -11 0 5 -6 10 -14 10 -8 0 -17 11 -20 25
-3 13 -18 37 -32 52 -14 15 -35 39 -46 53 -15 20 -18 21 -12 5 4 -11 7 -28 8
-37 0 -9 5 -16 10 -15 5 1 12 -6 14 -15 2 -12 -3 -18 -13 -18 -9 0 -14 4 -10
9 3 5 -8 20 -24 33 -16 13 -34 34 -41 47 -11 21 -14 22 -22 8 -11 -21 -58 -23
-58 -2 0 18 12 19 28 3 18 -18 23 -4 11 30 -6 18 -17 32 -24 32 -8 0 -20 6
-27 13 -7 7 -22 17 -33 21 -16 6 -13 0 9 -23 22 -23 26 -31 13 -31 -9 0 -23
10 -31 22 -9 12 -16 19 -16 14 0 -5 -6 -3 -14 3 -10 9 -20 9 -34 2 -14 -8 -22
-5 -35 10 -9 10 -25 19 -34 19 -10 0 -28 11 -40 24 -25 26 -70 39 -80 23 -6
-9 -73 -4 -108 9 -13 5 -16 4 -11 -4 4 -8 0 -12 -11 -12 -30 0 -63 12 -63 22
0 5 4 7 9 3 5 -3 12 -1 16 5 12 20 -27 9 -46 -12 -11 -14 -22 -19 -26 -13 -13
17 -120 16 -127 -1 -3 -8 -12 -14 -21 -14 -8 0 -15 -4 -15 -10 0 -18 -30 -11
-31 8 0 12 -3 10 -10 -8 -9 -22 -12 -23 -22 -9 -8 10 -23 15 -42 13 -17 -2
-40 1 -52 8 -18 9 -28 8 -47 -2 -14 -7 -36 -10 -50 -6 -23 6 -26 3 -26 -19 0
-16 -6 -25 -15 -25 -8 0 -15 7 -15 15 0 27 -19 16 -45 -24 -22 -35 -28 -39
-52 -32 -45 11 -76 3 -70 -20 7 -28 -8 -23 -21 7 -7 14 -16 23 -21 20 -5 -4
-12 0 -14 6 -4 8 -6 7 -6 -3 -1 -21 -32 -34 -42 -17 -6 9 -10 8 -15 -5 -5 -15
-9 -15 -22 -5 -8 7 -25 13 -36 14 -72 2 -87 5 -81 13 3 5 1 12 -4 16 -5 3 -14
-2 -19 -12 -9 -16 -11 -16 -27 0 -23 24 -35 21 -35 -9 0 -14 -4 -23 -9 -20 -5
3 -7 14 -5 24 5 22 -68 68 -102 64 -18 -3 -24 1 -24 15 0 21 -35 46 -67 48
-12 0 -30 8 -41 18 -10 10 -25 15 -33 12 -8 -3 -30 8 -49 24 -31 25 -37 27
-55 15 -31 -20 -182 18 -211 53 -15 19 -25 24 -36 17 -9 -5 -47 -7 -85 -5 -54
3 -62 6 -38 11 l30 8 -32 1 c-18 0 -33 6 -33 11 0 13 -27 13 -35 -1z"/>
<path d="M6505 5241 c-76 -35 -161 -70 -322 -132 -90 -35 -163 -67 -163 -71 0
-11 18 -10 25 2 16 25 32 7 42 -47 l10 -58 2 57 c1 62 -6 56 116 98 28 10 59
21 69 25 19 8 19 2 12 -241 -4 -137 -10 -252 -14 -255 -4 -4 -29 -4 -57 0
l-50 6 0 212 c0 116 -4 205 -8 197 -5 -8 -11 -102 -14 -209 l-6 -195 -30 0
-29 0 6 138 c5 107 4 132 -5 112 -11 -23 -14 -52 -17 -192 l-2 -57 -49 6 -49
6 11 -40 10 -40 161 -11 c203 -15 410 -28 741 -47 143 -8 289 -17 325 -20 36
-2 151 -9 255 -15 215 -12 430 -28 491 -36 l42 -6 0 41 1 40 -47 3 c-39 3 -47
6 -47 23 0 16 11 22 50 31 28 7 48 13 45 14 -3 1 -54 6 -115 10 -60 4 -191 15
-290 23 -297 25 -419 29 -407 15 6 -7 8 -26 5 -42 l-6 -29 -91 7 c-50 4 -138
10 -196 12 -58 3 -109 9 -114 14 -16 16 67 42 144 45 19 1 43 5 52 9 9 4 55 4
102 -1 47 -5 86 -6 86 -2 0 8 -111 19 -210 20 -60 1 -94 -5 -170 -31 -102 -35
-91 -35 -350 -22 l-135 7 2 200 c4 243 6 258 39 274 14 6 29 9 34 6 5 -3 11
-1 15 5 3 5 16 10 29 10 12 0 26 4 32 9 5 5 18 11 29 13 15 2 21 13 25 43 7
56 30 66 123 48 97 -18 247 -35 429 -48 110 -8 137 -15 143 -36 8 -23 23 -24
47 -3 16 16 18 15 24 0 4 -9 4 -33 1 -52 -6 -38 0 -64 14 -64 5 0 9 29 9 64 0
44 5 67 15 76 20 16 45 6 45 -19 0 -25 40 -31 190 -29 58 1 130 -2 160 -6 l56
-7 13 -56 c9 -41 11 -98 5 -227 -5 -94 -9 -175 -9 -181 0 -5 9 -10 20 -10 19
0 20 9 27 195 4 128 3 199 -4 207 -6 7 -7 28 -3 49 l6 36 90 -7 c76 -5 89 -4
89 9 0 17 -1 17 -305 41 -110 8 -290 24 -400 35 -110 11 -281 27 -380 35 -99
9 -216 20 -260 25 -103 13 -112 12 -160 -9z m794 -631 c24 -7 39 -6 48 1 9 8
44 8 126 0 62 -6 145 -11 184 -11 93 0 123 -11 123 -46 l0 -26 -162 6 c-156 6
-359 23 -385 31 -10 3 -10 10 -1 30 13 28 18 29 67 15z"/>
<path d="M1744 5163 c7 -25 20 -136 17 -147 -4 -16 10 -66 19 -66 5 0 19 18
31 40 13 22 33 47 46 55 23 16 32 55 12 55 -6 0 -33 18 -59 40 -51 43 -74 51
-66 23z"/>
<path d="M1841 4865 c-13 -19 -27 -32 -32 -29 -5 3 -9 -2 -9 -10 0 -8 -7 -22
-16 -31 -11 -11 -17 -40 -20 -96 -2 -44 -6 -84 -9 -89 -3 -5 -2 -27 1 -50 4
-24 10 -37 14 -30 11 19 50 -10 50 -37 0 -25 15 -31 23 -10 3 7 6 5 6 -5 1
-10 6 -18 11 -18 6 0 10 80 10 220 0 121 -1 220 -2 220 -2 0 -14 -16 -27 -35z"/>
<path d="M5987 4433 c-4 -3 -7 -27 -7 -52 0 -107 -47 -231 -116 -306 -48 -52
-44 -40 -88 -265 -3 -14 -14 -61 -26 -105 -52 -199 -61 -244 -47 -252 6 -4 47
-9 91 -11 79 -4 111 -15 100 -33 -3 -5 -9 -120 -15 -256 -5 -137 -12 -272 -15
-301 -4 -34 -2 -58 5 -65 6 -6 11 -18 11 -27 0 -23 50 -49 85 -44 25 4 26 3
10 -5 -18 -9 -18 -10 5 -10 20 -1 26 -6 25 -23 0 -13 -4 -29 -9 -37 -5 -8 -4
-17 5 -22 9 -6 -5 -9 -41 -7 -84 3 -89 5 -85 44 1 19 -2 37 -6 40 -5 3 -9 -42
-9 -100 0 -109 -9 -153 -35 -162 -8 -3 -22 1 -30 10 -9 9 -21 16 -27 16 -6 0
0 9 13 20 l24 21 -25 -2 c-49 -3 -60 1 -60 20 0 11 -5 23 -10 26 -8 5 -8 11
-1 19 8 9 6 17 -7 28 -31 27 -102 58 -132 58 -16 0 -32 6 -37 13 -4 6 -10 73
-13 147 l-5 135 -25 -50 c-13 -27 -37 -69 -52 -91 -15 -23 -28 -45 -28 -50 0
-4 -6 -15 -14 -23 -8 -9 -21 -27 -28 -41 -7 -14 -45 -71 -83 -128 -116 -171
-109 -132 -60 -325 23 -92 44 -169 46 -171 2 -2 20 -11 39 -19 19 -8 82 -50
139 -93 221 -168 281 -203 333 -197 48 6 121 -18 183 -62 80 -58 174 -144 200
-186 14 -21 35 -47 47 -59 30 -29 119 -73 188 -94 30 -9 71 -21 90 -28 19 -6
67 -32 107 -59 40 -27 75 -49 78 -49 4 0 27 -15 53 -33 l47 -32 270 -6 c247
-6 283 -9 419 -37 111 -22 154 -35 165 -49 9 -11 31 -26 49 -33 46 -18 82 -63
131 -166 60 -122 61 -124 138 -124 l63 0 0 295 c0 268 -1 294 -16 288 -12 -4
-15 -2 -12 8 3 8 11 13 17 12 8 -2 11 219 11 809 0 785 -1 811 -18 795 -10
-10 -31 -17 -45 -17 -24 0 -27 4 -27 35 0 20 5 35 12 35 6 0 9 2 6 5 -11 12
-38 -8 -38 -29 -1 -17 -4 -14 -20 14 -11 19 -19 43 -20 53 0 31 -24 13 -33
-26 -5 -21 -15 -37 -23 -37 -8 0 -17 0 -21 0 -19 0 -8 70 20 129 31 68 57 104
57 79 0 -10 3 -9 11 2 9 12 10 11 6 -7 -3 -13 -1 -23 4 -23 5 0 9 6 9 14 0 8
8 13 18 12 11 -1 16 5 14 16 -2 12 2 16 12 12 9 -4 16 -22 18 -47 2 -35 6 -41
22 -39 10 2 23 -2 27 -10 5 -7 9 260 9 593 l0 606 -142 11 c-78 6 -146 8 -150
6 -4 -3 -8 -32 -8 -65 l0 -60 -47 3 -48 3 -3 63 c-2 34 -6 62 -10 62 -4 1 -27
3 -52 5 -25 2 -99 6 -165 10 -66 3 -262 15 -435 25 -414 26 -636 38 -795 46
-71 3 -137 7 -146 10 -8 2 -18 1 -22 -3z m37 -1210 c-7 -221 -18 -268 -60
-260 -17 3 -24 -1 -26 -16 -2 -11 -9 -22 -15 -25 -15 -4 -17 122 -6 356 l6
142 54 0 54 0 -7 -197z m218 37 c-2 -85 -6 -158 -9 -163 -3 -5 -16 -6 -28 -3
-13 3 -27 2 -30 -4 -3 -5 -33 -10 -67 -10 l-60 0 4 169 3 170 95 -2 95 -2 -3
-155z m330 128 c-6 -7 -9 -33 -8 -58 2 -25 0 -56 -4 -70 -4 -14 -4 -51 0 -83
7 -64 2 -72 -37 -62 l-27 6 30 20 29 20 -27 -7 c-26 -6 -28 -4 -28 26 0 21 -4
30 -12 27 -8 -2 -13 -23 -14 -53 l-1 -49 -75 -2 c-96 -3 -124 16 -130 90 l-3
48 18 -23 c19 -22 19 -22 33 -3 10 14 24 18 49 17 19 -2 36 2 36 8 1 5 3 15 4
20 1 6 3 14 4 20 0 5 21 30 46 56 25 25 45 50 45 55 0 5 19 9 41 9 32 0 39 -3
31 -12z m588 -5 c35 -7 40 -23 39 -138 0 -129 -11 -182 -43 -213 l-27 -27 -5
23 c-7 24 -12 26 -34 12 -10 -6 -11 -10 -2 -10 6 0 12 -9 12 -20 0 -11 -4 -20
-10 -20 -5 0 -10 7 -10 15 0 8 -4 15 -10 15 -5 0 -10 -7 -10 -15 0 -17 -4 -17
-71 -15 -25 1 -82 -5 -125 -14 -119 -22 -155 -10 -168 55 -4 19 -17 31 -49 44
-24 10 -49 25 -54 34 -7 11 -9 68 -5 155 l5 139 270 -7 c148 -4 282 -9 297
-13z m227 -91 l63 -72 0 -104 c0 -57 -3 -118 -6 -135 -7 -34 -27 -41 -43 -13
-8 13 -13 14 -19 4 -10 -15 -38 -7 -46 14 -3 8 -12 14 -20 14 -17 0 -30 83
-22 140 3 19 6 79 6 133 1 69 5 97 13 94 7 -2 40 -36 74 -75z m-1037 -831 c0
-5 -11 -18 -25 -29 -14 -11 -25 -25 -25 -31 0 -14 47 -14 56 0 4 8 9 7 15 -2
11 -19 -9 -28 -48 -23 -36 4 -46 -7 -56 -62 -6 -33 16 -63 56 -77 17 -7 23
-22 10 -30 -5 -3 -53 2 -108 11 -55 8 -122 16 -150 17 -27 1 -56 3 -62 4 -15
1 -18 21 -4 21 5 0 37 16 70 34 53 31 61 33 61 17 0 -22 19 -31 67 -31 28 0
34 3 29 16 -3 9 -6 21 -6 27 0 8 -4 7 -12 -1 -16 -16 -38 -15 -38 1 0 13 40
54 108 111 44 36 62 44 62 27z m1290 -595 c0 -7 -7 -19 -16 -27 -13 -10 -17
-10 -24 1 -5 8 -12 11 -16 7 -8 -7 24 -47 37 -47 5 0 6 7 2 17 -5 13 -2 15 15
11 17 -5 22 -2 22 13 0 20 15 26 24 10 3 -4 19 -11 36 -15 63 -12 169 -48 187
-62 16 -14 16 -15 0 -10 -9 3 -31 3 -47 -1 -23 -4 -30 -11 -30 -29 0 -49 -45
-40 -54 12 -7 37 -17 42 -35 20 -9 -11 -26 -13 -67 -9 -37 4 -54 2 -54 -6 0
-6 3 -10 8 -9 4 1 26 -2 48 -6 34 -6 43 -12 47 -32 4 -22 1 -24 -37 -24 -73 0
-86 8 -82 45 3 20 -3 44 -14 63 -17 28 -24 52 -21 80 1 17 71 16 71 -2z"/>
<path d="M3236 4270 c-5 -11 -17 -15 -42 -12 -29 4 -36 1 -41 -17 -7 -26 -12
-26 -30 -3 -13 15 -13 15 -7 -8 4 -14 11 -26 15 -28 5 -2 9 -19 9 -37 0 -33
-21 -52 -42 -38 -6 3 -8 1 -5 -4 4 -6 0 -13 -8 -17 -8 -3 -16 -13 -16 -23 -1
-10 -5 -4 -9 12 l-8 30 -1 -33 c-1 -19 -7 -35 -16 -38 -12 -5 -13 -10 -4 -20
9 -11 6 -14 -19 -14 -16 0 -35 -7 -42 -15 -7 -8 -22 -15 -35 -15 -12 0 -30 -9
-40 -20 -15 -16 -15 -22 -5 -35 7 -8 10 -16 6 -16 -3 -1 -10 -3 -16 -4 -5 -1
-21 -3 -34 -4 -14 0 -32 -8 -41 -17 -13 -13 -13 -19 -3 -33 12 -14 11 -14 -4
-3 -22 17 -54 7 -61 -18 -3 -13 -11 -18 -21 -14 -12 4 -16 0 -16 -16 0 -19 -4
-22 -28 -17 -23 5 -31 0 -47 -24 -11 -16 -25 -29 -32 -29 -6 0 -14 -4 -17 -9
-4 -5 4 -7 16 -5 13 2 17 2 11 -2 -7 -3 -13 -12 -13 -21 0 -12 -8 -13 -39 -8
-34 6 -40 4 -46 -14 -3 -12 -15 -21 -26 -21 -21 0 -27 -10 -31 -50 -2 -19 2
-25 18 -25 29 -1 55 -28 43 -46 -5 -8 -9 -22 -9 -32 0 -10 -7 -26 -16 -34 -10
-10 -14 -26 -11 -42 3 -14 -1 -38 -9 -53 -10 -19 -12 -34 -5 -46 6 -12 5 -23
-5 -36 -7 -10 -11 -23 -8 -28 3 -5 10 -35 15 -66 6 -31 13 -72 16 -90 3 -18
13 -38 23 -45 9 -6 22 -22 28 -34 10 -19 8 -26 -18 -54 -26 -29 -28 -38 -23
-76 4 -32 1 -53 -12 -78 -15 -27 -16 -36 -6 -49 7 -8 10 -24 6 -36 -5 -15 0
-26 17 -40 l23 -19 -27 -1 c-22 0 -28 -5 -28 -21 0 -19 1 -19 16 -5 21 22 24
20 24 -10 0 -14 -3 -23 -7 -21 -5 3 -13 -1 -20 -8 -10 -11 -10 -15 0 -19 9 -3
9 -7 -2 -14 -10 -8 -11 -13 -2 -23 20 -24 56 -82 77 -125 15 -32 23 -39 35
-31 10 6 27 3 54 -12 22 -11 38 -22 35 -22 -24 -7 -57 -5 -67 3 -14 11 -36 1
-27 -13 3 -5 0 -17 -7 -25 -9 -11 -9 -18 -1 -26 16 -16 15 -85 0 -94 -8 -5 -6
-10 8 -16 14 -6 12 -7 -8 -3 -23 4 -28 2 -28 -15 0 -15 7 -20 25 -20 15 0 25
-6 25 -14 0 -29 -13 -46 -35 -46 -25 0 -38 -29 -24 -51 11 -18 12 -59 1 -59
-11 0 -64 58 -86 93 -12 19 -21 65 -27 130 -13 137 -28 247 -35 259 -7 11 -54
-40 -76 -81 -7 -14 -19 -32 -26 -40 -7 -7 -16 -26 -19 -42 -3 -16 -10 -32 -14
-35 -31 -19 26 -204 86 -282 49 -63 269 -262 289 -262 4 0 14 -8 24 -17 33
-32 72 -63 78 -63 4 0 17 -10 29 -22 32 -34 64 -58 75 -58 6 0 10 -7 10 -15 0
-8 5 -15 10 -15 6 0 10 -7 10 -16 0 -8 5 -12 10 -9 6 3 13 -2 17 -12 7 -19 63
-73 76 -73 4 0 7 -7 7 -15 0 -8 6 -15 14 -15 8 0 16 -7 20 -15 3 -8 12 -12 21
-9 10 4 15 0 15 -14 0 -15 5 -18 23 -15 18 4 26 -2 35 -22 10 -21 15 -25 26
-16 10 9 15 8 20 -4 3 -8 14 -15 25 -15 10 0 21 -7 25 -15 8 -21 46 -19 46 3
1 16 1 16 14 0 14 -19 32 -25 21 -8 -9 15 25 11 75 -10 30 -12 44 -23 42 -34
-2 -9 2 -16 8 -16 5 0 10 8 10 17 0 13 3 14 12 5 7 -7 20 -12 30 -12 24 0 138
-51 133 -60 -2 -3 0 -12 6 -20 7 -12 9 -11 10 5 0 14 2 16 6 5 11 -26 38 -46
66 -48 16 -1 35 -9 44 -18 9 -8 25 -13 35 -10 21 5 31 1 147 -51 40 -18 85
-36 100 -39 43 -11 94 -40 118 -68 29 -33 22 -33 -25 -1 -20 14 -48 25 -62 25
-14 0 -63 7 -110 16 -47 9 -102 15 -123 14 -25 0 -39 4 -43 15 -4 10 -16 14
-39 11 -35 -5 -103 14 -114 31 -3 6 -15 11 -26 10 -40 0 -84 15 -79 28 8 20
-25 65 -47 65 -11 0 -19 -5 -19 -11 0 -5 5 -7 10 -4 6 3 14 4 20 0 15 -9 -22
-45 -46 -45 -12 0 -27 -7 -34 -15 -17 -21 -101 -66 -111 -59 -10 6 -50 -14
-46 -24 4 -12 -32 -56 -40 -48 -4 4 -1 11 7 16 8 5 11 13 6 17 -5 4 -11 1 -14
-7 -7 -20 -88 -100 -102 -100 -11 0 -113 -71 -118 -82 -2 -5 -15 -8 -28 -8
-16 0 -24 -6 -24 -17 0 -9 -3 -14 -6 -10 -4 3 -22 -6 -41 -20 -18 -14 -36 -23
-40 -20 -3 4 -14 -4 -23 -16 -10 -13 -35 -32 -56 -42 -21 -11 -51 -32 -67 -47
-16 -15 -42 -33 -58 -40 -16 -7 -29 -16 -29 -19 0 -4 -24 -22 -52 -40 -80 -50
-118 -82 -118 -99 0 -48 -116 167 -136 253 -3 15 -10 30 -15 33 -5 3 -9 15 -9
28 0 12 -9 49 -19 82 -10 32 -27 95 -36 139 -9 44 -21 91 -25 105 -13 36 -81
350 -83 385 -3 31 -43 31 -90 -2 -22 -15 -67 -54 -100 -85 -56 -54 -92 -81
-167 -126 -19 -12 -48 -33 -64 -47 -16 -14 -35 -25 -41 -25 -7 0 -18 -7 -25
-15 -7 -8 -65 -40 -129 -71 -64 -30 -125 -60 -136 -67 -21 -11 -56 -18 -185
-38 -41 -6 -84 -13 -95 -15 -84 -17 -135 -24 -240 -30 -99 -5 -139 -3 -230 14
-158 30 -354 45 -463 37 -150 -10 -151 -24 -2 -18 145 6 277 -5 455 -39 90
-17 132 -19 235 -14 69 3 152 12 185 20 71 17 133 26 198 31 27 2 65 9 85 16
20 7 43 14 50 15 24 4 177 78 230 111 29 18 55 33 58 33 9 0 99 63 102 72 2 4
8 8 14 8 15 0 97 59 139 100 91 88 160 135 185 126 16 -6 20 -76 4 -76 -5 0
-10 -7 -10 -15 0 -8 4 -15 8 -15 5 0 9 -33 10 -73 1 -81 7 -152 16 -202 4 -21
2 -36 -5 -41 -7 -4 -9 -23 -5 -55 4 -26 2 -76 -3 -111 -21 -127 -12 -268 15
-268 8 0 14 -7 14 -15 0 -9 9 -15 25 -15 14 0 25 -6 26 -12 0 -7 5 -3 11 10 6
12 20 22 33 22 11 0 25 4 31 9 5 6 18 2 34 -10 14 -12 18 -18 10 -14 -13 6
-13 5 0 -7 9 -7 29 -35 44 -63 39 -68 65 -95 92 -95 13 0 26 -5 29 -10 13 -21
73 -4 183 52 83 42 128 59 173 64 32 4 62 10 65 15 2 5 16 4 30 -1 16 -7 31
-6 43 1 14 9 23 8 44 -6 15 -9 27 -22 27 -27 0 -5 4 -7 8 -4 5 3 6 -8 4 -24
-3 -22 1 -29 18 -35 13 -4 19 -12 16 -21 -3 -7 -2 -13 2 -11 4 1 24 -8 46 -21
33 -19 37 -26 32 -50 -3 -15 -3 -21 0 -14 3 6 10 12 15 12 6 0 7 -5 3 -11 -4
-8 0 -9 15 -4 11 3 21 2 21 -2 0 -5 18 -19 40 -32 22 -12 40 -29 40 -37 0 -8
9 -25 20 -37 24 -25 50 -74 50 -93 0 -7 6 -11 13 -8 18 6 42 -22 27 -31 -22
-13 -8 -25 29 -25 29 0 41 5 44 17 4 17 5 17 6 1 1 -16 14 -18 116 -18 63 0
115 2 115 5 0 2 -15 33 -34 67 -18 35 -37 74 -41 88 -7 24 -7 24 20 -5 49 -53
241 -155 291 -155 35 0 44 12 38 56 -2 16 -1 22 2 13 3 -10 13 -19 24 -22 10
-2 20 -15 23 -28 3 -18 5 -15 6 11 1 26 4 31 11 20 5 -8 12 -12 15 -8 4 3 -3
14 -14 25 -23 22 -43 111 -21 98 10 -6 11 5 7 51 -4 41 -3 49 2 26 13 -49 19
-49 18 2 -1 24 -4 43 -7 41 -12 -7 -27 11 -34 40 -5 25 -5 27 5 11 11 -18 12
-18 25 5 18 32 17 50 0 43 -11 -4 -18 6 -26 36 -6 23 -9 47 -7 53 2 7 7 -3 11
-20 4 -18 12 -33 17 -33 6 0 8 10 5 23 -3 12 -3 16 0 10 3 -8 15 -11 30 -7 21
5 24 3 24 -21 0 -27 1 -28 19 -11 11 10 24 15 29 12 6 -3 13 1 16 10 9 23 8
24 -16 21 -20 -2 -23 3 -26 36 -3 39 -22 42 -22 3 0 -26 -27 -31 -50 -8 -16
16 -23 45 -9 36 12 -7 11 0 -2 72 -13 71 -20 84 -30 58 -6 -16 -8 -15 -8 8 -1
31 17 47 30 27 7 -11 9 -9 9 6 1 15 4 13 14 -10 14 -31 11 -50 -5 -40 -11 8
-12 13 5 -69 16 -74 36 -110 36 -63 0 15 -4 27 -10 27 -5 0 -10 9 -10 21 0 13
4 18 12 13 25 -16 45 -11 40 8 -2 10 -9 21 -15 25 -6 4 -7 1 -2 -8 7 -12 6
-12 -7 -1 -16 13 -30 92 -16 92 5 0 8 -10 8 -22 0 -13 5 -30 11 -38 7 -11 8
-6 4 18 -7 32 -6 34 16 27 13 -4 26 -12 27 -16 2 -5 8 -9 13 -9 23 0 -7 22
-67 50 -35 17 -64 35 -64 40 0 6 -3 9 -7 8 -5 -1 -36 12 -71 30 -34 17 -70 32
-79 32 -11 0 -13 3 -7 9 12 12 274 46 339 44 87 -3 155 -14 152 -25 -1 -6 4
-13 11 -15 8 -3 10 1 6 11 -5 13 2 16 45 16 28 0 51 -4 51 -9 0 -5 11 -8 24
-7 13 0 23 3 21 6 -11 18 18 33 67 33 67 1 82 -7 67 -35 -9 -17 -18 -20 -60
-16 -46 5 -49 4 -43 -15 4 -12 1 -23 -7 -28 -17 -11 -29 -11 -28 -1 1 4 1 16
0 27 -1 18 -2 19 -12 3 -11 -19 4 -58 21 -58 13 0 13 -47 1 -55 -6 -3 -6 -18
-1 -35 5 -17 5 -28 1 -25 -5 2 -8 -17 -8 -44 1 -39 -5 -57 -26 -84 -15 -20
-27 -40 -27 -46 0 -5 -5 -22 -12 -36 -14 -32 -37 -33 -31 -1 6 30 -5 36 -37
24 -24 -10 -24 -11 -5 -18 16 -7 17 -9 3 -9 -9 -1 -19 -9 -21 -18 -4 -16 -5
-16 -6 1 -1 11 -6 16 -15 13 -7 -3 -19 0 -25 6 -8 8 -11 8 -11 0 0 -6 7 -13
15 -17 19 -7 21 -76 2 -76 -16 0 -38 -99 -30 -131 4 -15 3 -20 -5 -15 -8 5
-12 -1 -12 -18 0 -17 -4 -24 -14 -20 -8 3 -16 -3 -19 -15 -3 -12 1 -22 9 -25
16 -6 19 -42 4 -51 -5 -3 -7 -13 -4 -23 5 -14 4 -15 -5 -2 -5 8 -13 11 -17 7
-4 -3 -1 -13 6 -22 18 -21 127 -21 127 0 0 9 -7 15 -16 13 -30 -5 -39 10 -34
59 4 52 52 163 68 162 6 -1 26 -1 46 0 30 1 35 5 35 22 -1 12 5 24 13 27 10 3
12 0 8 -11 -3 -9 -2 -19 3 -22 6 -4 10 -2 10 3 0 5 25 8 55 8 50 -1 56 -4 62
-24 4 -16 -2 -33 -16 -52 -25 -35 -26 -40 -6 -40 8 0 15 9 15 21 0 11 4 18 9
14 5 -3 13 4 16 16 10 29 44 62 60 56 19 -8 35 14 35 49 0 57 12 96 32 101 16
5 22 16 19 36 0 4 6 7 14 7 9 0 19 9 23 19 7 20 9 21 38 21 9 0 12 5 8 11 -5
9 9 10 51 4 79 -9 106 -21 99 -40 -4 -9 0 -15 9 -15 9 0 19 -9 22 -20 3 -11
10 -20 15 -20 5 0 1 -13 -8 -30 -14 -24 -14 -32 -4 -42 10 -10 14 -8 18 10 4
13 14 22 25 22 11 0 19 6 19 13 0 17 36 50 79 72 l34 17 -5 -71 c-4 -53 -10
-75 -23 -85 -13 -9 -15 -15 -7 -20 21 -13 13 -26 -15 -27 -24 -2 -25 -2 -5 -6
12 -2 22 -9 22 -14 0 -5 -10 -14 -22 -19 l-23 -9 22 0 c25 -1 37 -16 27 -33
-8 -13 -11 -29 -20 -105 -3 -29 -10 -53 -15 -53 -5 0 -9 -10 -9 -22 0 -19 2
-20 10 -8 6 10 10 11 10 3 0 -7 12 -13 27 -13 25 0 25 1 9 13 -15 11 -16 18
-9 32 10 17 11 17 18 -4 3 -11 11 -19 16 -15 5 3 7 10 3 15 -3 6 -3 27 1 47 6
31 9 34 15 17 5 -12 9 -14 9 -5 0 8 -4 24 -8 35 -5 13 -3 28 7 42 8 14 12 33
8 47 -3 13 -2 26 2 28 5 2 12 15 16 30 5 22 3 26 -8 22 -12 -5 -14 8 -12 80 2
80 1 86 -18 86 -14 0 -17 3 -9 11 6 6 23 9 39 7 22 -2 30 -9 32 -28 2 -14 8
-31 14 -37 28 -34 38 19 53 282 4 60 11 116 17 122 7 9 7 13 -1 13 -7 0 -10 8
-7 18 5 16 9 70 21 257 3 39 10 121 16 183 6 62 9 168 7 235 -5 128 4 167 41
167 9 0 23 5 31 11 11 7 6 8 -20 4 -19 -4 -39 -11 -44 -16 -15 -13 -37 -11
-34 3 1 7 -5 38 -15 68 -9 30 -23 91 -32 135 -15 76 -28 106 -41 93 -3 -4 -1
-21 4 -40 6 -18 15 -60 20 -93 5 -33 19 -91 31 -130 36 -116 38 -240 6 -455
-31 -215 -31 -214 -45 -305 -6 -38 -15 -106 -20 -150 -31 -244 -29 -241 -134
-188 -39 20 -96 52 -126 71 -30 19 -84 51 -120 70 -36 19 -78 45 -95 56 -49
36 -670 336 -694 336 -5 0 -13 9 -16 20 -7 22 -13 24 -33 11 -10 -6 -10 -10 3
-21 8 -7 15 -16 15 -20 0 -14 -257 1 -280 15 -27 17 8 20 82 8 96 -15 115 -13
157 23 17 14 36 22 42 18 8 -5 10 -2 7 7 -4 10 2 15 18 17 13 1 24 -2 24 -7 0
-4 17 -8 38 -7 30 1 37 5 37 21 0 11 8 21 18 23 9 2 17 8 17 13 0 5 7 9 15 9
8 0 15 7 15 15 0 8 13 21 29 30 28 14 30 14 34 -8 4 -20 4 -20 4 3 1 45 3 49
16 45 6 -2 27 16 45 40 18 25 38 44 45 42 6 -1 18 12 26 30 8 19 27 37 45 45
38 15 54 30 49 45 -3 7 5 18 16 25 12 7 21 17 21 23 0 5 55 62 122 125 180
171 321 317 341 353 9 17 17 42 17 54 0 12 4 33 10 47 20 52 -6 23 -38 -43
-23 -47 -59 -95 -115 -153 -82 -85 -157 -148 -176 -148 -5 0 -11 -6 -14 -12
-2 -7 -8 -10 -12 -6 -4 4 -5 14 -2 23 10 25 8 30 -10 30 -10 0 -22 -10 -28
-22 -9 -22 -25 -31 -25 -15 0 16 -60 13 -67 -3 -3 -9 -25 -25 -49 -36 -51 -24
-74 -17 -47 14 18 20 17 20 -4 15 -16 -4 -20 -2 -16 8 3 10 0 12 -10 8 -9 -3
-23 3 -34 15 -20 24 -33 27 -33 7 0 -23 -38 -27 -43 -4 -4 15 -11 18 -26 13
-16 -5 -23 -1 -31 19 -11 29 -60 38 -60 11 0 -8 -5 -15 -11 -15 -7 0 -9 11 -6
26 4 25 3 26 -33 20 -49 -8 -69 0 -82 33 -10 26 -10 26 -20 5 -15 -33 -80 -38
-136 -11 -47 22 -95 27 -124 13 -15 -7 -18 -3 -18 17 0 14 -7 32 -15 41 -18
18 -20 46 -2 47 6 0 3 4 -8 9 -20 8 -20 9 1 9 12 1 34 -11 49 -25 23 -21 32
-24 46 -16 21 13 29 6 29 -25 0 -16 6 -23 20 -23 17 0 19 3 10 19 -22 42 -11
67 28 62 7 -1 17 12 23 28 6 17 15 29 19 26 5 -3 14 3 20 12 8 13 13 14 16 6
9 -22 62 -15 78 10 26 40 30 75 9 80 -16 5 -16 6 2 5 30 -2 75 13 75 24 0 5
-5 18 -10 29 -9 15 -6 24 14 44 14 14 32 25 40 25 12 0 14 11 10 55 -5 51 -4
55 15 55 23 0 29 25 9 33 -10 4 -10 8 1 16 12 8 9 11 -15 17 -16 5 -35 7 -41
6 -8 -2 -10 3 -7 13 9 24 -54 78 -83 70 -13 -3 -23 -1 -23 5 0 8 -39 8 -114 1
-4 -1 -5 -12 -2 -26 4 -14 2 -25 -4 -25 -5 0 -10 9 -10 19 0 11 -4 22 -9 25
-10 7 -34 -18 -25 -27 11 -11 -37 -18 -51 -7 -8 6 -23 9 -34 5 -17 -5 -20 -1
-23 27 l-3 33 -16 -30 c-9 -17 -21 -28 -30 -26 -8 2 -27 6 -42 9 -18 3 -32 13
-37 28 -5 13 -13 24 -17 25 -5 0 -24 2 -43 4 -19 2 -49 5 -67 8 -22 4 -37 0
-51 -13 -18 -17 -21 -17 -26 -4 -4 10 -13 14 -22 10 -9 -3 -25 1 -36 9 -14 9
-27 11 -38 5 -36 -19 -70 -19 -80 0 -6 11 -17 17 -25 14 -8 -4 -16 -1 -16 5
-1 6 -3 16 -4 21 -1 6 -3 17 -4 25 0 8 -7 12 -15 9 -7 -3 -16 2 -20 11 -4 11
-12 14 -26 10 -16 -5 -20 -2 -20 19 0 16 6 26 14 26 8 0 16 7 20 15 9 25 46
19 47 -7 0 -13 3 -17 6 -10 8 20 43 15 43 -7 0 -28 23 -42 59 -35 29 6 31 5
31 -21 0 -27 1 -27 18 -12 24 22 29 22 67 -7 22 -17 35 -22 42 -15 8 8 13 7
17 0 4 -6 14 -11 22 -11 8 0 13 4 9 9 -3 6 11 13 30 17 31 5 41 2 64 -20 31
-30 75 -34 103 -9 10 9 18 11 18 6 0 -7 15 -9 41 -6 l40 6 -6 -37 c-6 -32 -5
-36 13 -36 13 0 24 10 30 29 10 29 48 58 60 47 3 -3 0 -6 -7 -6 -7 0 -9 -5 -5
-11 3 -6 1 -15 -6 -19 -15 -9 -5 -30 14 -30 20 0 44 32 29 37 -16 6 -17 43 -2
43 6 0 9 -7 5 -15 -6 -16 9 -21 18 -6 3 5 21 12 40 15 18 4 41 15 51 26 10 11
28 20 39 20 12 0 29 7 39 15 11 7 25 11 33 8 8 -3 14 0 14 6 0 6 13 9 30 7 20
-2 30 1 30 10 0 9 12 14 34 14 19 0 41 6 48 14 21 20 75 46 82 39 3 -4 24 8
45 25 22 18 46 32 54 32 8 0 17 7 21 15 3 8 13 15 21 15 9 0 14 4 11 9 -8 12
20 22 39 15 17 -7 20 -20 5 -29 -15 -9 -1 -26 18 -23 11 2 16 -3 14 -15 -3
-20 16 -30 61 -31 32 -1 52 -26 20 -26 -17 -1 -17 -1 0 -11 9 -5 17 -18 17
-27 0 -10 5 -23 11 -29 8 -8 7 -17 -4 -33 -20 -29 -11 -60 19 -60 12 0 25 4
28 9 7 11 86 19 86 9 0 -4 6 -5 14 -2 14 5 32 95 29 144 0 14 1 19 4 13 10
-27 23 -11 23 27 0 22 5 40 10 40 6 0 10 5 10 12 0 9 -3 9 -12 0 -7 -7 -16
-12 -20 -12 -14 0 -9 38 7 54 8 8 15 31 15 50 0 25 4 36 15 36 18 0 20 17 3
23 -10 3 -10 8 -2 16 13 15 6 61 -10 62 -6 0 -2 4 9 8 11 5 31 8 45 7 21 -1
25 -6 25 -30 0 -16 5 -31 11 -33 7 -2 14 20 18 61 4 35 14 72 21 83 18 23 19
63 3 63 -7 1 -3 9 10 19 26 22 28 34 7 51 -9 7 -15 29 -15 51 0 32 -6 42 -35
65 -19 14 -35 34 -35 44 0 10 -7 23 -16 31 -9 7 -14 22 -11 36 5 25 -3 29 -21
11 -9 -9 -15 -9 -24 0 -9 9 -8 12 5 12 11 0 17 8 17 24 0 44 -10 56 -46 56
-19 0 -34 4 -34 8 0 9 -58 32 -81 32 -8 0 -20 9 -27 20 -7 11 -19 20 -27 20
-8 0 -15 6 -15 13 0 7 -9 18 -21 25 -15 10 -19 20 -15 37 5 20 2 26 -18 31
-23 6 -62 39 -68 59 -2 6 -14 10 -27 10 -15 1 -27 9 -32 23 -5 12 -13 22 -19
22 -5 0 -10 9 -10 20 0 13 -12 28 -30 38 -16 9 -30 20 -30 25 0 4 -15 7 -32 7
-23 0 -29 3 -19 9 19 12 -17 31 -60 31 -18 0 -40 7 -50 16 -23 21 -54 11 -44
-14 4 -9 10 -36 12 -59 3 -24 10 -43 15 -43 5 0 7 -3 4 -8 -2 -4 4 -25 14 -47
14 -28 19 -63 20 -115 0 -81 -9 -106 -34 -97 -9 4 -19 -1 -25 -10 -8 -14 -9
-14 -15 4 -7 22 -72 57 -81 43 -3 -5 -18 -5 -37 1 -17 4 -43 6 -56 2 -18 -4
-29 -1 -38 11 -12 17 -14 17 -38 1 -14 -10 -26 -21 -26 -26 0 -5 -14 -9 -30
-9 -17 0 -38 -4 -48 -9 -72 -37 -71 -37 -98 -8 -23 25 -73 39 -59 17 3 -6 -1
-7 -9 -4 -22 9 -20 31 4 37 11 3 20 10 20 16 0 14 -37 15 -45 1 -9 -15 -25
-12 -25 5 0 18 -36 20 -77 4 -23 -8 -30 -7 -40 7 -10 14 -16 15 -25 6 -16 -16
-43 -15 -58 3 -8 9 -30 15 -56 15 -32 0 -44 4 -44 15 0 22 -31 18 -37 -4 -3
-12 -14 -18 -30 -18 -14 0 -28 -6 -32 -12 -4 -6 -15 -9 -24 -5 -23 8 -78 -12
-109 -41 -33 -31 -44 -31 -52 -2 -17 64 1 141 53 222 41 65 51 86 51 111 0 30
-14 38 -33 19 -14 -13 -16 -13 -20 7 -3 18 -5 20 -11 8z m1300 -427 c15 -16
32 -40 40 -56 13 -25 13 -28 -3 -33 -56 -18 -63 -26 -61 -71 1 -41 12 -57 21
-30 3 9 7 9 20 -2 10 -7 17 -19 17 -25 0 -6 14 -17 31 -23 17 -7 28 -16 25
-21 -3 -5 -1 -23 4 -40 5 -19 5 -34 -1 -37 -5 -4 -9 2 -9 11 0 10 -3 15 -6 11
-13 -12 8 -45 33 -52 25 -6 25 -8 20 -58 -5 -37 -2 -61 9 -82 20 -39 11 -70
-27 -85 -24 -10 -36 -11 -50 -2 -10 7 -26 12 -35 12 -9 0 -28 8 -42 19 -24 16
-93 32 -144 32 -10 0 -20 4 -23 10 -4 5 -24 9 -45 9 -21 0 -51 5 -65 10 -45
17 -155 37 -155 28 0 -4 -7 -8 -15 -8 -8 0 -15 -4 -15 -9 0 -8 -13 -12 -90
-27 -19 -4 -40 -10 -45 -15 -15 -12 -88 -14 -105 -4 -8 5 -30 10 -48 11 -20 0
-43 11 -60 26 -32 31 -85 40 -121 22 -14 -7 -42 -15 -61 -17 -19 -2 -44 -8
-55 -14 -32 -17 -87 -32 -140 -39 -28 -4 -55 -10 -60 -15 -6 -4 -27 -10 -47
-12 -20 -2 -43 -9 -51 -15 -12 -10 -16 -9 -22 5 -6 17 -7 17 -20 0 -8 -12 -15
-14 -20 -8 -3 6 -22 11 -41 11 -31 0 -34 2 -34 30 0 19 -5 30 -14 30 -19 0
-31 37 -18 53 11 13 13 107 2 107 -10 0 4 81 19 108 7 13 10 30 7 38 -3 9 1
14 13 14 10 0 21 7 25 15 6 17 45 19 92 6 21 -6 36 -5 48 5 16 11 23 11 47 -1
15 -8 34 -15 41 -15 18 0 128 -52 128 -61 0 -15 -42 -21 -51 -8 -8 12 -11 11
-19 -1 -5 -8 -10 -23 -10 -32 0 -10 -6 -18 -14 -18 -7 0 -16 -11 -18 -25 -4
-21 -1 -25 17 -25 12 0 30 9 40 20 16 18 16 20 1 26 -9 3 -13 10 -10 15 8 14
24 11 24 -5 0 -10 16 -17 45 -21 24 -4 50 -13 56 -21 9 -12 16 -10 40 6 24 18
31 19 49 8 11 -7 20 -17 20 -23 0 -5 5 -3 10 5 7 12 12 12 22 2 9 -9 9 -12 0
-12 -7 0 -12 -4 -12 -9 0 -13 70 -11 71 3 1 6 4 -4 8 -22 7 -38 25 -47 29 -14
3 22 22 32 22 12 0 -13 56 -69 91 -92 25 -16 27 -16 54 10 19 17 38 25 53 23
16 -2 22 1 18 8 -4 7 1 11 13 11 11 0 23 5 26 10 4 6 11 7 17 4 7 -5 9 -1 5 9
-3 8 -9 32 -13 52 -5 30 -3 39 14 50 12 9 22 31 26 60 4 25 12 45 18 45 5 0
18 10 27 22 13 16 23 19 37 13 10 -4 24 -9 29 -11 6 -1 18 -5 27 -9 11 -4 20
0 28 14 8 16 15 19 28 12 9 -4 23 -6 31 -3 22 8 111 103 146 156 28 43 76 47
111 9z m-197 -714 c16 -47 13 -80 -9 -117 -11 -18 -20 -46 -20 -62 0 -22 -7
-32 -32 -44 -35 -18 -72 -21 -63 -6 3 6 1 10 -4 10 -20 0 -12 59 9 70 14 7 20
7 20 0 0 -5 7 -10 15 -10 8 0 15 3 15 8 0 10 -24 75 -32 88 -7 11 10 52 34 78
23 27 55 19 67 -15z m-364 -46 c11 -17 18 -48 19 -82 2 -85 -3 -91 -73 -91
-33 0 -71 4 -85 10 -29 11 -35 40 -8 41 15 0 15 1 -2 8 -14 5 -16 10 -8 15 7
4 10 12 7 17 -4 5 0 9 8 9 7 0 23 14 36 30 16 22 28 29 41 25 15 -5 21 0 26
19 8 33 17 33 39 -1z m139 17 c14 -5 26 -16 26 -24 0 -7 9 -16 20 -19 24 -6
27 -49 5 -87 -8 -14 -14 -39 -15 -55 0 -44 -25 -75 -59 -75 -16 0 -31 6 -34
14 -8 20 4 59 22 74 15 12 14 13 0 9 -10 -3 -26 4 -38 17 -19 20 -20 28 -12
71 6 31 18 56 31 67 26 21 22 21 54 8z m-554 -32 c0 -9 19 -13 67 -11 37 1 75
-3 85 -8 14 -8 18 -6 18 8 0 37 21 -5 27 -54 5 -44 2 -54 -17 -73 -20 -20 -30
-22 -96 -18 -81 5 -100 15 -109 59 -8 35 3 109 16 109 5 0 9 -6 9 -12z m-388
-531 c-3 -16 -1 -17 17 -7 17 9 25 8 37 -5 15 -15 15 -17 -2 -30 -11 -8 -16
-15 -11 -16 4 -1 12 -3 17 -4 6 -1 28 -3 51 -4 44 -1 45 -20 1 -22 l-27 -2 25
-4 c34 -7 50 -21 50 -48 0 -31 -11 -38 -31 -19 -19 17 -33 5 -23 -21 4 -9 16
-15 28 -14 47 3 59 0 47 -14 -13 -17 -5 -27 23 -27 34 -1 55 -24 62 -69 5 -31
10 -41 21 -36 8 3 31 -7 51 -22 58 -44 82 -54 104 -47 12 3 18 2 15 -4 -4 -5
9 -9 31 -8 33 1 37 -2 40 -26 3 -22 -1 -28 -17 -28 -11 0 -23 5 -26 11 -10 16
-30 5 -30 -17 0 -11 -8 -20 -20 -23 -11 -2 -25 -10 -31 -19 -8 -11 -13 -12
-18 -4 -4 7 -17 12 -30 12 -12 0 -26 4 -31 9 -6 5 -35 11 -65 14 -32 4 -49 3
-41 -2 25 -16 1 -33 -36 -26 -22 4 -40 2 -50 -6 -11 -10 -16 -10 -22 0 -4 6
-12 11 -17 10 -21 -5 -62 14 -58 26 3 7 -3 16 -14 19 -11 4 -23 18 -26 31 -4
14 -11 25 -16 25 -11 0 -24 -65 -16 -79 10 -16 -15 -24 -38 -12 -12 7 -27 24
-32 39 -8 21 -21 30 -57 39 -38 11 -48 18 -53 40 -7 31 -57 83 -80 83 -8 0
-14 10 -14 25 0 18 -5 25 -19 25 -11 0 -21 9 -24 22 -4 12 -9 19 -13 15 -10
-9 -44 11 -44 27 0 7 9 21 20 31 15 13 20 31 20 68 0 44 2 49 19 44 20 -5 61
29 51 42 -3 3 12 7 33 9 36 3 37 2 37 -30 0 -49 9 -56 70 -53 41 2 54 6 52 16
-2 8 -8 16 -13 17 -5 2 -9 10 -9 17 0 12 5 11 27 0 25 -13 28 -13 35 4 3 11
11 22 17 26 6 3 11 19 11 36 l0 29 22 -22 c13 -13 21 -31 20 -41z m43 -1680
c7 -8 25 -37 40 -66 19 -36 31 -49 38 -42 11 11 37 -28 37 -55 0 -24 -18 -15
-29 14 -10 26 -10 25 -5 -8 4 -19 13 -43 22 -52 37 -43 -52 -8 -100 39 -46 45
-65 100 -59 171 1 16 39 16 56 -1z"/>
<path d="M7568 917 c-52 -14 -48 -28 6 -21 86 12 97 3 140 -118 21 -58 99
-134 147 -143 19 -3 59 -5 89 -3 55 3 55 3 58 38 1 20 -1 30 -5 23 -9 -12 -93
-16 -93 -4 0 4 -18 15 -40 25 -26 11 -42 26 -46 41 -6 24 -129 141 -171 163
-25 14 -34 13 -85 -1z"/>
<path d="M5630 656 c-5 -13 -13 -27 -19 -30 -6 -4 -16 -25 -23 -47 -10 -34 -9
-42 3 -51 11 -8 11 -9 -3 -5 -13 5 -16 0 -16 -25 1 -19 -6 -36 -16 -43 -9 -7
-12 -15 -7 -16 7 -3 6 -18 -3 -44 -10 -28 -11 -44 -4 -52 7 -9 7 -13 -1 -13
-6 0 -11 -5 -11 -11 0 -5 5 -7 10 -4 6 3 10 -1 10 -9 0 -9 -9 -16 -20 -16 -14
0 -21 -9 -25 -37 -8 -51 -19 -69 -40 -65 -14 3 -16 -1 -11 -22 4 -18 2 -26
-11 -29 -13 -3 -12 -5 5 -6 27 -1 20 -21 -7 -21 -13 0 -20 -9 -24 -33 -2 -17
-1 -33 4 -35 5 -2 3 -9 -4 -17 -8 -9 -16 -10 -24 -3 -10 8 -13 6 -13 -6 0 -13
11 -16 59 -16 69 0 91 6 91 27 0 8 -5 11 -12 8 -7 -4 -5 0 5 8 9 8 17 26 17
41 0 17 5 26 16 26 10 0 13 -6 9 -19 -3 -12 0 -21 10 -25 9 -3 14 -10 10 -16
-3 -5 0 -18 6 -29 10 -15 25 -19 71 -20 32 0 58 4 58 9 0 6 -4 10 -10 10 -5 0
-12 10 -15 23 -4 14 -19 28 -37 35 -21 8 -29 16 -25 27 4 8 2 15 -3 15 -6 0
-10 -7 -10 -16 0 -13 -3 -14 -15 -4 -8 6 -13 17 -12 23 3 16 -35 16 -51 0 -7
-7 -18 -13 -23 -13 -11 0 11 42 29 53 6 4 12 18 12 31 0 12 11 37 25 56 14 19
25 42 25 51 0 10 5 21 11 25 6 3 8 17 4 32 -3 14 -1 28 5 32 7 4 12 40 13 86
1 43 6 82 11 85 4 4 3 16 -4 29 -6 12 -9 29 -5 38 6 16 8 16 20 -1 8 -12 15
-14 20 -8 3 6 -1 14 -9 17 -21 8 -20 31 2 37 10 3 6 5 -11 6 -20 1 -30 -5 -37
-23z"/>
<path d="M6143 259 c-13 -5 -23 -13 -23 -19 0 -15 -16 -12 -34 5 -20 21 -24
19 -18 -10 2 -14 11 -25 20 -25 12 0 11 -4 -6 -16 -33 -23 -28 -44 11 -44 29
-1 30 -2 12 -13 -11 -7 -21 -22 -23 -35 -3 -20 0 -22 21 -17 36 9 44 -13 10
-26 -28 -11 -28 -11 -5 -20 12 -4 30 -6 40 -2 14 5 15 3 5 -8 -24 -25 -13 -29
68 -29 76 0 81 1 76 20 -4 15 0 20 14 20 31 0 21 15 -11 16 -17 1 -30 -3 -30
-7 0 -5 -6 -9 -14 -9 -8 0 -16 16 -20 39 -3 22 -12 42 -18 44 -10 4 -10 8 1
15 9 7 11 17 5 33 -4 13 -7 28 -6 33 2 5 -4 6 -13 3 -11 -5 -15 0 -15 17 0 32
-19 46 -47 35z"/>
</g>
</svg>
